<?xml version="1.0" encoding="utf-8"?>
<!-- Generator: Adobe Illustrator 19.2.1, SVG Export Plug-In . SVG Version: 6.00 Build 0)  -->
<svg version="1.1" id="Layer_1" xmlns="http://www.w3.org/2000/svg" xmlns:xlink="http://www.w3.org/1999/xlink" x="0px" y="0px"
	 viewBox="0 0 38 50" style="enable-background:new 0 0 38 50;" xml:space="preserve">
<style type="text/css">
	.st0{fill:#070808;}
	.st1{fill:#FFFFFF;}
	.st2{fill:#2F3838;}
	.st3{fill:#596666;}
	.st4{fill:#FCE780;}
	.st5{fill:#FBD435;}
	.st6{fill:#3E4848;}
	.st7{fill:#010101;}
</style>
<g>
	<g>
		<circle class="st0" cx="30.6" cy="7.4" r="7.4"/>
		<g>
			<rect x="29.6" y="2.7" class="st1" width="1.9" height="9.3"/>
			
				<rect x="29.6" y="2.7" transform="matrix(4.434681e-11 -1 1 4.434681e-11 23.2032 37.9645)" class="st1" width="1.9" height="9.3"/>
		</g>
	</g>
	<g>
		<path id="svg_33_1_" class="st2" d="M16.4,40.5L8.6,41c-0.7,0-1.3-0.5-1.4-1.1l0,0c0-0.7,0.5-1.3,1.1-1.4l7.8-0.6
			c0.7,0,1.3,0.5,1.4,1.1l0,0C17.7,39.9,17.1,40.5,16.4,40.5z"/>
		<path id="svg_34_1_" class="st2" d="M16.4,44.3l-7.8,0.5c-0.7,0-1.3-0.5-1.4-1.1l0,0c0-0.7,0.5-1.3,1.1-1.4l7.8-0.5
			c0.7,0,1.3,0.5,1.4,1.1l0,0C17.7,43.7,17.1,44.3,16.4,44.3L16.4,44.3z"/>
		<g id="svg_35_1_">
			<path id="svg_36_1_" class="st3" d="M8.5,46.1H8.3c0.2,2.2,2.1,3.9,4.1,3.9c2.3,0,4.1-1.9,4.1-4.4c0,0,0,0,0-0.1L8.5,46.1
				L8.5,46.1z"/>
		</g>
		<g id="svg_37_1_">
			<path id="svg_38_1_" class="st4" d="M24.8,19.8c0-6.7-5.5-12.4-12.4-12.4S0,12.9,0,19.8c0,3.2,1.1,6.1,3.1,8.1
				C5.1,30.3,6,31.1,6,35.1v0.3c0,0.6,0.5,1.1,1.1,1.1h10.6c0.6,0,1.1-0.5,1.1-1.1v-0.2c0-4.3,1.1-4.9,3.2-7.7l0,0
				C23.8,25.6,24.8,22.8,24.8,19.8L24.8,19.8z"/>
			<path id="svg_39_1_" class="st4" d="M22.1,27.7l0.1-0.2C22.2,27.5,22.1,27.6,22.1,27.7L22.1,27.7z"/>
		</g>
		<path id="svg_40_1_" class="st5" d="M24.8,19.8c0-6.7-5.5-12.4-12.4-12.4v29.2h5.3c0.6,0,1.1-0.5,1.1-1.1v-0.2
			c0-4.3,1.1-4.9,3.2-7.7l0,0C23.8,25.6,24.8,22.8,24.8,19.8z"/>
		<path id="svg_41_1_" class="st0" d="M17.7,43.1v-0.4c0-0.6-0.5-0.9-1.1-0.9l-4.1,0.3v2.5l3.9-0.3C17.3,44.2,17.7,43.7,17.7,43.1
			L17.7,43.1z"/>
		<path id="svg_42_1_" class="st0" d="M17.7,39.3V39c0-0.6-0.5-1.1-1.4-1.1l-3.7,0.3v2.5l4.3-0.3C17.3,40.5,17.7,39.9,17.7,39.3z"/>
		<path id="svg_43_1_" class="st6" d="M16.7,45.5l-4.1,0.3V50C14.8,50,16.7,48.1,16.7,45.5C16.7,45.6,16.7,45.6,16.7,45.5L16.7,45.5
			z"/>
	</g>
	<path class="st7" d="M11.2,25.9c0.1,0,0.2,0,0.2,0c1,0,2,0,3,0c1.6,0,3-1.2,3.3-2.7c0.1-0.3,0.1-0.6,0.1-0.8c0-0.2,0-0.2-0.2-0.2
		c-0.5,0-0.9,0-1.4,0c-0.1,0-0.1,0-0.2,0C16,22.1,16,22,16,22c0.8-1,1.5-1.9,2.3-2.9c0.1-0.1,0.1-0.2,0.3,0c0.8,1,1.6,1.9,2.3,2.9
		c0,0,0,0,0,0.1c-0.1,0-0.2,0-0.2,0c-0.5,0-0.9,0-1.4,0c-0.2,0-0.2,0.1-0.2,0.2c0,1.4-0.5,2.6-1.5,3.5c-0.9,0.8-2,1.3-3.2,1.3
		c-1.8,0-3.5,0-5.3,0c-0.2,0-0.2,0.1-0.3,0.2c-0.4,1.3-1.9,2-3.2,1.6c-1-0.3-1.8-1.4-1.7-2.6c0.1-1.1,0.9-2.1,1.9-2.3
		c1.3-0.3,2.5,0.3,3,1.5c0.1,0.2,0.2,0.2,0.3,0.1c1.1-0.4,1.9-1.1,2.2-2.2c0.1-0.4,0.2-0.8,0.2-1.2c0-0.2,0-0.2,0.2-0.2
		c0.3,0,0.6,0,0.9,0c0.2,0,0.2,0,0.2,0.2c0,1.3-0.5,2.5-1.4,3.4C11.3,25.8,11.2,25.8,11.2,25.9z M6.4,27.9c0.7,0,1.3-0.6,1.3-1.2
		c0-0.7-0.6-1.3-1.3-1.3c-0.7,0-1.3,0.6-1.3,1.2C5.1,27.3,5.6,27.9,6.4,27.9z"/>
	<path class="st7" d="M18.4,17.7c-1.4,0-2.5-1.2-2.5-2.6c0-1.4,1.2-2.5,2.6-2.5c1.4,0,2.5,1.2,2.5,2.6
		C20.9,16.6,19.8,17.7,18.4,17.7z M18.4,13.9c-0.7,0-1.3,0.6-1.3,1.3c0,0.7,0.6,1.3,1.3,1.3c0.7,0,1.3-0.6,1.3-1.3
		C19.7,14.4,19.1,13.9,18.4,13.9z"/>
	<path class="st7" d="M4.9,20.9c0,0-0.1-0.1-0.1-0.1c-0.2-0.2-0.5-0.5-0.7-0.7c-0.1-0.1,0-0.2,0-0.2c0.4-0.4,0.8-0.8,1.2-1.2
		c0.1-0.1,0.1-0.2,0-0.3c-0.4-0.4-0.8-0.8-1.1-1.1C4,17.1,4,17.1,4.1,17c0.2-0.2,0.4-0.4,0.6-0.6c0.1-0.2,0.2-0.1,0.3,0
		c0.4,0.4,0.8,0.8,1.1,1.1c0.1,0.1,0.2,0.1,0.3,0c0.4-0.4,0.8-0.8,1.1-1.2c0.1-0.1,0.2-0.1,0.3,0c0.2,0.2,0.4,0.4,0.6,0.6
		c0.1,0.1,0.1,0.2,0,0.3c-0.4,0.4-0.7,0.7-1.1,1.1c-0.2,0.2-0.2,0.2,0,0.4c0.4,0.4,0.7,0.7,1.1,1.1c0.1,0.1,0.1,0.2,0,0.3
		c-0.2,0.2-0.4,0.4-0.6,0.6c-0.1,0.1-0.2,0.1-0.3,0c-0.4-0.4-0.8-0.8-1.1-1.1c-0.1-0.1-0.2-0.1-0.3,0c-0.4,0.4-0.8,0.8-1.1,1.1
		C5,20.8,5,20.8,4.9,20.9z"/>
	<path class="st7" d="M14.6,15.1c-0.1,0-0.2,0-0.2,0c-0.5,0-1,0-1.4,0c-0.1,0-0.2,0-0.2,0.2c0,0.5,0,0.5-0.5,0.5c-0.2,0-0.4,0-0.7,0
		c-0.1,0-0.2,0-0.2-0.2c0,0,0,0,0,0c0-0.5,0-0.5-0.5-0.5c-0.4,0-0.8,0-1.2,0c-0.1,0-0.1,0-0.2,0c0-0.1,0.1-0.1,0.1-0.2
		c0.7-0.9,1.5-1.9,2.2-2.8c0.2-0.2,0.2-0.2,0.3,0c0.7,0.9,1.5,1.9,2.2,2.8C14.5,15,14.5,15.1,14.6,15.1z"/>
	<path class="st7" d="M12.7,17.7c0,0.2,0,0.3,0,0.5c0,0-0.1,0.1-0.1,0.1c-0.3,0-0.7,0-1,0c-0.1,0-0.2-0.1-0.2-0.2c0-0.3,0-0.6,0-1
		c0-0.1,0-0.2,0.2-0.2c0.3,0,0.7,0,1,0c0,0,0.1,0.1,0.1,0.1C12.7,17.4,12.7,17.5,12.7,17.7C12.7,17.7,12.7,17.7,12.7,17.7z"/>
	<path class="st7" d="M12.7,20.2c0,0.2,0,0.3,0,0.5c0,0.1-0.1,0.1-0.1,0.1c-0.3,0-0.7,0-1,0c0,0-0.1-0.1-0.1-0.1c0-0.3,0-0.7,0-1
		c0,0,0.1-0.1,0.1-0.1c0.3,0,0.7,0,1,0c0,0,0.1,0.1,0.1,0.1C12.7,19.9,12.7,20.1,12.7,20.2z"/>
</g>
</svg>
