<?xml version="1.0" encoding="utf-8"?>
<!-- Generator: Adobe Illustrator 19.0.0, SVG Export Plug-In . SVG Version: 6.00 Build 0)  -->
<svg version="1.1" id="Layer_1" xmlns="http://www.w3.org/2000/svg" xmlns:xlink="http://www.w3.org/1999/xlink" x="0px" y="0px"
	 viewBox="-259 550 354.3 248.1" style="enable-background:new -259 550 354.3 248.1;" xml:space="preserve">
<style type="text/css">
	.st0{fill:none;}
	.st1{fill:#FFFFFF;stroke:#5AAAFA;stroke-miterlimit:10;}
	.st2{fill:#EEC02B;}
	.st3{fill:#1CB3A0;}
	.st4{fill:none;stroke:#5AAAFA;stroke-width:2;stroke-miterlimit:10;}
	.st5{fill:#5AAAFA;}
	.st6{fill:#FFFFFF;}
	.st7{opacity:0.77;fill:#9CDAF0;enable-background:new    ;}
	.st8{opacity:0.35;}
	.st9{opacity:0.77;fill:#201F1F;enable-background:new    ;}
	.st10{fill:#201F1F;}
	.st11{fill:#F4CAB1;}
	.st12{opacity:0.5;fill:#AC5C51;enable-background:new    ;}
	.st13{fill:#AC5C51;}
	.st14{fill:#9CDAF0;}
	.st15{font-family:'Arial'; font-weight: bold;}
	.st16{font-size:11px;}
	.st17{fill:#205081;}
	.st18{fill:#FC5255;}
	.st19{fill:#E8A723;}
	.st20{fill:#3EB890;}
	.st21{fill:#E01765;}
	.st22{fill:#472A49;}
	.st23{fill:#CC2027;}
	.st24{fill:#70CADB;}
	.st25{fill:#1A937D;}
	.st26{fill:#65863A;}
	.st27{fill:#2E3737;}
	.st28{fill:#586565;}
	.st29{fill:#FCE77F;}
	.st30{fill:#FCD432;}
	.st31{fill:#030506;}
	.st32{fill:#3D4747;}
	.st33{fill:#975AD1;}
	.st34{fill:#FC42A0;}
	.st35{fill:#64BC46;}
</style>
<g>
	<title>background</title>
	<rect id="canvas_background" x="-259" y="550" class="st0" width="354.3" height="245.5"/>
</g>
<title>Layer 1</title>
<circle id="svg_1" class="st1" cx="-127.1" cy="637.5" r="26.5"/>
<circle id="svg_2" class="st1" cx="-213.7" cy="637.8" r="26.5"/>
<rect id="svg_3" x="-258" y="551" class="st2" width="83.5" height="4.5"/>
<rect id="svg_4" x="-168.3" y="551" class="st3" width="83.5" height="4.5"/>
<circle id="svg_8" class="st1" cx="52.6" cy="637.5" r="26.5"/>
<line id="svg_9" class="st4" x1="-214.2" y1="593" x2="-127.5" y2="593"/>
<g id="svg_10">
	<g id="svg_11">
		<polyline id="svg_12" class="st4" points="-214.2,603.8 -214.2,593 -127.5,593 -127.5,606 		"/>
		<g id="svg_13">
			<polygon id="svg_14" class="st5" points="-209.2,602.4 -214.2,611 -219.2,602.4 			"/>
		</g>
	</g>
</g>
<line id="svg_15" class="st4" x1="-127.5" y1="719" x2="-127.5" y2="700"/>
<g id="svg_16">
	<g id="svg_17">
		<line id="svg_18" class="st4" x1="-82.4" y1="637.5" x2="-92.7" y2="637.5"/>
		<g id="svg_19">
			<polygon id="svg_20" class="st5" points="-83.8,632.5 -75.2,637.5 -83.8,642.5 			"/>
		</g>
	</g>
</g>
<g id="svg_21">
	<g id="svg_22">
		<line id="svg_23" class="st4" x1="9.1" y1="637.5" x2="-1.2" y2="637.5"/>
		<g id="svg_24">
			<polygon id="svg_25" class="st5" points="7.7,632.5 16.3,637.5 7.7,642.5 			"/>
		</g>
	</g>
</g>
<circle id="svg_26" class="st1" cx="-127.5" cy="752.9" r="26.5"/>
<path id="XMLID_13_" class="st6" d="M-126.9,755.8h-0.4c-0.2,0-0.3-0.1-0.3-0.3v-4.9c0-0.2,0.1-0.3,0.3-0.3h0.4
	c0.2,0,0.3,0.1,0.3,0.3v4.8C-126.5,755.6-126.7,755.8-126.9,755.8z"/>
<path id="XMLID_9_" class="st6" d="M-137.1,747.6c-2.2,0-4,1.9-4,4.3c0,2.4,1.8,4.3,4,4.3c2.2,0,3.9-2,3.9-4.3
	C-133.2,749.6-134.9,747.6-137.1,747.6z M-137.1,755.4c-1.8,0-3.2-1.5-3.2-3.4s1.4-3.5,3.2-3.5c1.8,0,3.2,1.5,3.2,3.5
	S-135.4,755.4-137.1,755.4z"/>
<path id="XMLID_8_" class="st6" d="M-129,752.1v-0.3c0-0.8-0.7-1.5-1.5-1.5h-0.1h-1.1l0,0c-0.3,0-0.5,0.2-0.5,0.5v4.4
	c0,0.3,0.2,0.5,0.5,0.5l0,0c0.3,0,0.5-0.2,0.5-0.5v-1.3l1.2,1.6c0.2,0.2,0.5,0.3,0.7,0.1l0,0c0.2-0.2,0.3-0.5,0.1-0.7l-1-1.4
	C-129.5,753.4-129,752.8-129,752.1L-129,752.1z M-129.8,752c0,0.4-0.3,0.8-0.8,0.8h-0.6l0,0v-1.6h0.6
	C-130.2,751.1-129.8,751.5-129.8,752L-129.8,752z"/>
<g id="svg_125">
	<path id="svg_126" class="st0" d="M85.6,637.5"/>
</g>
<g id="svg_132">
	<path id="svg_133" class="st7" d="M-201.6,650.9c0,2.3-5.1,4.1-11.5,4.1c-6.4,0-11.5-1.8-11.5-4.1c0-2.3,5.1-4,11.5-4
		C-206.7,646.9-201.6,648.7-201.6,650.9z"/>
	<g id="svg_134" class="st8">
		<path id="svg_135" class="st9" d="M-212.1,651.6c-0.3,0.2-0.6,0.5-0.7,0.9c-0.1,0.1-0.1,0.3-0.1,0.5v0.3v0.3v0.5v1
			c1.6,0,0.2,0,2.1-0.1v-0.1v-0.2v-1.1v-0.3c0-0.2,0-0.2,0.1-0.5c0.1-0.3,0-0.4,0.2-0.6c0.1-0.1,0.1-0.1,0.1-0.2L-212.1,651.6
			L-212.1,651.6z"/>
		<path id="svg_136" class="st9" d="M-207,650.4L-207,650.4c-0.1-0.2-0.4-0.2-0.8-0.2c-1.2,0-2.2,0.6-2.5,1.4h0.2l-0.2,0.4h-0.1v0.1
			l0,0v0.6v0.4v1.7v0.1l1.9-0.2v-2c0-0.1,0-0.1,0-0.2c0-0.2,0.1-0.4,0.1-0.5c0.1-0.2,0.2-0.4,0.4-0.6c0.2-0.2,0.4-0.3,0.7-0.5
			C-207.1,650.8-206.9,650.6-207,650.4z"/>
	</g>
	<g id="svg_137" class="st8">
		<path id="svg_138" class="st9" d="M-213.6,655L-213.6,655c0.1,0,0.3,0,0.4,0s0.1,0,0.2,0l0,0c-0.1,0-0.1,0-0.2,0
			S-213.5,655-213.6,655z"/>
		<path id="svg_139" class="st9" d="M-213.2,647"/>
		<path id="svg_140" class="st9" d="M-213.2,647"/>
		<path id="svg_141" class="st9" d="M-216.3,654.9c0.2,0,0.4,0,0.6,0.1l0,0C-215.9,654.9-216.1,654.9-216.3,654.9L-216.3,654.9z"/>
		<path id="svg_142" class="st9" d="M-213.6,653.5v-0.3v-0.3c0-0.2-0.1-0.3-0.1-0.5c-0.2-0.7-0.8-1.1-1.5-1.3v0.7h-1
			c0.2,0.1,0,0,0.3,0.3c0.2,0.2,0.1,0.3,0.2,0.6c0.1,0.3,0,0.3,0.1,0.5v0.3v1.4c0.7,0.1,1.4,0.1,2.1,0.1v-1L-213.6,653.5
			C-213.5,653.5-213.6,653.5-213.6,653.5z"/>
		<path id="svg_143" class="st9" d="M-216.3,654.9L-216.3,654.9V653v-0.4V652l0,0c0-0.2-0.1-0.3-0.1-0.5c-0.2-0.8-1.3-1.5-2.6-1.5
			c-0.4,0-0.7,0-0.8,0.2l0,0c-0.1,0.2,0.1,0.4,0.3,0.5c0.3,0.2,0.5,0.3,0.7,0.5s0.3,0.4,0.4,0.6c0,0.1,0.1,0.3,0.1,0.5
			c0,0.1,0,0.1,0,0.2v1.9"/>
	</g>
	<path id="svg_144" class="st10" d="M-199.7,634.7c2.5,0,4.8,0.3,6.9,0.7v-0.2c-2-0.4-4.2-0.6-6.6-0.6c-0.8,0-1.6,0-2.4,0.1
		c0.3-1.1,0.5-2.3,0.4-3.8c0-2.5-0.8-4.5-2.3-6c0.8-2.1-0.3-4.7-0.3-4.7s-2-0.2-5,1.9c-1.4-0.4-2.9-0.5-4.5-0.5
		c-1.7,0-3.3,0.2-4.9,0.7l0,0c-2.5-2-5.2-2-5.2-2s-1.2,3-0.2,5.1l0,0c-1.8,1.9-2.7,4.5-1.8,7.9c0.2,0.6,0.3,1.2,0.5,1.7
		c-0.7,0-1.4-0.1-2.1-0.1c-2.4,0-4.6,0.2-6.6,0.7v0.2c2-0.5,4.4-0.7,6.9-0.7c0.6,0,1.3,0,1.9,0.1c0.1,0.3,0.3,0.6,0.4,0.9
		c-0.8,0-1.7,0-2.6,0.1c-2.4,0.1-4.6,0.5-6.5,1v0.2c2-0.6,4.3-1,6.8-1.1c0.8,0,1.6-0.1,2.3-0.1c1.6,2.7,4.1,3.8,7.9,4.1
		c-0.9,0.5-1.5,1.4-1.6,2.4c-4.5,1.8-4.5-2.4-7-3.1c-0.2-0.1-0.3-0.1-0.5-0.1c-0.5-0.1-1,0-1.1,0.2l0,0v0.1c0,0.1,0,0.1,0.1,0.2
		c0.1,0.2,0.4,0.4,0.8,0.5c0.3,0.2,0.7,0.5,0.9,0.6c1.5,1.7,1.7,4.8,6.8,3.8v1.6v2.1c0,0.1,0,0.1,0,0.2c0,0.2-0.1,0.4-0.1,0.5
		c-0.1,0.2-0.2,0.4-0.4,0.6s-0.4,0.3-0.7,0.5c-0.2,0.1-0.4,0.3-0.3,0.5l0,0c0.1,0.2,0.3,0.2,0.8,0.2c1.3,0,2.3-0.6,2.6-1.5
		c0.1-0.1,0.1-0.3,0.1-0.5l0,0v-0.6v-0.4v-1.7V644c0.1-0.8,0.5-1.4,0.6-1.3v1.3v3.5v2.1v0.3c0,0.2,0,0.2-0.1,0.5
		c-0.1,0.3,0,0.4-0.2,0.6c-0.3,0.3,0,0.1-0.4,0.3c-0.2,0.1-0.2,0.3-0.2,0.5c0.1,0.2,0.2,0.3,0.7,0.3c1.1-0.2,1.9-0.6,2.2-1.5
		c0.1-0.1,0.1-0.3,0.1-0.5v-0.3v-0.3V649v-1.6v-5c0-0.2,0.1-0.3,0.3-0.3c0.1,0,0.3,0.1,0.3,0.3v5v1.6v0.5v0.3v0.3
		c0,0.2,0,0.3,0.1,0.5c0.2,0.8,1.1,1.3,2.2,1.5c0.4,0.1,0.6-0.1,0.7-0.3c0-0.2,0-0.4-0.2-0.5c-0.4-0.2-0.1,0-0.4-0.3
		c-0.2-0.2-0.1-0.4-0.2-0.6c-0.1-0.3,0-0.3-0.1-0.5v-0.3v-2.1V644v-1.3c0.1-0.1,0.5,0.4,0.6,1.3v2.1v1.7v0.4v0.6l0,0
		c0,0.2,0,0.3,0.1,0.5c0.2,0.8,1.3,1.5,2.6,1.5c0.4,0,0.7,0,0.8-0.2l0,0c0.1-0.2-0.1-0.4-0.3-0.5c-0.3-0.2-0.5-0.3-0.7-0.5
		c-0.2-0.2-0.3-0.4-0.4-0.6c0-0.1-0.1-0.3-0.1-0.5c0-0.1,0-0.1,0-0.2v-2.1v-3.4c0-1.1-0.7-2.3-1.7-2.8c3.7-0.2,6.5-1.3,7.9-4.1
		c0.8,0,1.6,0,2.5,0.1c2.5,0.1,4.8,0.5,6.8,1.1v-0.2c-1.9-0.5-4.1-0.9-6.5-1c-0.9-0.1-1.8-0.1-2.7-0.1c0.1-0.3,0.2-0.6,0.3-0.9
		C-201.1,634.7-200.4,634.7-199.7,634.7L-199.7,634.7z"/>
	<path id="svg_145" class="st0" d="M-214.2,637.1"/>
	<g id="svg_146">
		<path id="svg_147" class="st11" d="M-204.2,633.7c0-2.5-1.8-4.5-4.3-4.5l0,0c-2.7,0-3.1,0.2-4.9,0.2c-1.8,0-2.2-0.2-4.7-0.2
			c-0.1,0-0.2,0-0.4,0c-2.4,0-4.3,1.9-4.3,4.4c0,1.9,1.2,3.8,3,4.5l0,0c0,0.2,3.6,1.6,11.3,0.6c0.3,0,0.7-0.1,1.1-0.2l0,0l0,0
			C-205.5,637.8-204.2,635.8-204.2,633.7z"/>
		<path id="svg_148" class="st12" d="M-218.4,629.7c0.1,0,0.3,0,0.4,0c2.5,0,2.9,0.2,4.7,0.2s2.2-0.2,4.9-0.2l0,0
			c2.4,0,4.1,1.9,4.3,4.2c0-0.1,0-0.1,0-0.2c0-2.5-1.8-4.5-4.3-4.5l0,0c-2.7,0-3.1,0.2-4.9,0.2s-2.2-0.2-4.7-0.2c-0.1,0-0.2,0-0.4,0
			c-2.4,0-4.3,1.9-4.3,4.4c0,0.1,0,0.1,0,0.2C-222.5,631.5-220.7,629.7-218.4,629.7z"/>
		<ellipse id="svg_149" class="st6" cx="-218.4" cy="633.6" rx="1.9" ry="2.8"/>
		<ellipse id="svg_150" class="st13" cx="-218.2" cy="633.6" rx="1.3" ry="1.8"/>
		<circle id="svg_151" class="st6" cx="-218.8" cy="632.9" r="0.4"/>
		<ellipse id="svg_152" class="st6" cx="-208.2" cy="633.6" rx="1.9" ry="2.8"/>
		<ellipse id="svg_153" class="st13" cx="-208.4" cy="633.7" rx="1.3" ry="1.8"/>
		<circle id="svg_154" class="st6" cx="-208.7" cy="632.9" r="0.3"/>
		<circle id="svg_155" class="st13" cx="-213.4" cy="636.1" r="0.5"/>
		<path id="svg_156" class="st13" d="M-212.5,637.1c-0.1,0-0.1,0.1-0.1,0.2c-0.1,0.3-0.4,0.5-0.8,0.5c-0.4,0-0.7-0.2-0.8-0.5
			c0-0.1-0.1-0.2-0.1-0.2s-0.1,0.1-0.1,0.2c0.1,0.4,0.5,0.8,1.1,0.8c0.5,0,1-0.3,1.1-0.8C-212.4,637.2-212.4,637.1-212.5,637.1z"/>
	</g>
	<path id="svg_157" class="st7" d="M-226,641.4c0,0.2-0.2,0.3-0.3,0.3c-0.2,0-0.3-0.2-0.3-0.3s0.3-1.4,0.3-1.4S-226,641.2-226,641.4
		z"/>
	<ellipse id="svg_158" class="st14" cx="-225" cy="639.7" rx="0.2" ry="0.2"/>
	<ellipse id="svg_159" class="st14" cx="-224.3" cy="640.3" rx="0.2" ry="0.2"/>
	
		<ellipse id="svg_160" transform="matrix(-0.9227 0.3856 -0.3856 -0.9227 -182.899 1318.8956)" class="st14" cx="-223.7" cy="641.1" rx="0.2" ry="0.3"/>
	
		<ellipse id="svg_161" transform="matrix(-0.7546 0.6562 -0.6562 -0.7546 30.2134 1272.7517)" class="st14" cx="-222.9" cy="642" rx="0.2" ry="0.3"/>
	
		<ellipse id="svg_162" transform="matrix(-0.5 0.866 -0.866 -0.5 223.8097 1156.3907)" class="st14" cx="-221.9" cy="642.8" rx="0.2" ry="0.3"/>
	
		<ellipse id="svg_163" transform="matrix(-0.1325 0.9912 -0.9912 -0.1325 387.2185 947.4296)" class="st14" cx="-221" cy="643.2" rx="0.2" ry="0.3"/>
	
		<ellipse id="svg_164" transform="matrix(-0.9977 6.730883e-02 -6.730883e-02 -0.9977 -395.4292 1299.709)" class="st14" cx="-219.6" cy="643.2" rx="0.3" ry="0.2"/>
	<path id="svg_165" class="st14" d="M-218.3,642.8c0,0.1,0,0.2-0.2,0.3c-0.2,0-0.3-0.1-0.3-0.2s0.1-0.2,0.3-0.3
		C-218.3,642.6-218.3,642.7-218.3,642.8z"/>
	<path id="svg_166" d="M-216.6,639.9c-0.4,0.2-0.7,0.5-0.9,0.8c0.3-0.1,8.3-1.8,9.1,1.9c-0.1-1.1-0.7-2.1-1.7-2.7
		C-213.3,640.2-216.6,639.9-216.6,639.9z"/>
	<path id="svg_167" d="M-218.2,642.3c0,1.2,0,2.2,0,2.2s-0.1,0-0.2,0C-218.4,644.5-218.6,643.5-218.2,642.3z"/>
	<path id="svg_168" class="st7" d="M-213.2,650.9"/>
	<path id="svg_169" class="st7" d="M-213.2,642.9"/>
	<line id="svg_170" class="st0" x1="-210.5" y1="651.9" x2="-211.6" y2="651.5"/>
	<line id="svg_171" class="st0" x1="-210.4" y1="654.9" x2="-209" y2="654.9"/>
	<line id="svg_172" class="st0" x1="-210" y1="654.9" x2="-210.4" y2="654.9"/>
	<line id="svg_173" class="st0" x1="-209.6" y1="654.8" x2="-209.9" y2="654.9"/>
	<line id="svg_174" class="st0" x1="-210" y1="654.9" x2="-210.3" y2="654.9"/>
	<line id="svg_175" class="st0" x1="-209.9" y1="654.9" x2="-210" y2="654.9"/>
	<line id="svg_176" class="st0" x1="-208.5" y1="654.7" x2="-208.9" y2="654.7"/>
	<line id="svg_177" class="st0" x1="-209.2" y1="654.8" x2="-208.9" y2="654.7"/>
	<line id="svg_178" class="st0" x1="-209.6" y1="654.8" x2="-209.2" y2="654.8"/>
	<line id="svg_179" class="st0" x1="-209.9" y1="654.9" x2="-209.6" y2="654.8"/>
	<line id="svg_180" class="st0" x1="-209.6" y1="654.8" x2="-209.6" y2="654.8"/>
	<line id="svg_181" class="st0" x1="-210.4" y1="654.9" x2="-210.5" y2="654.9"/>
	<line id="svg_182" class="st0" x1="-208.5" y1="654.7" x2="-208.5" y2="654.7"/>
</g>
<g id="svg_183">
	<path id="svg_184" class="st7" d="M-115.4,648.9c0,2.3-5.1,4.1-11.5,4.1c-6.3,0-11.5-1.8-11.5-4.1c0-2.3,5.1-4,11.5-4
		S-115.4,646.6-115.4,648.9z"/>
	<g id="svg_185" class="st8">
		<path id="svg_186" class="st9" d="M-125.9,649.5c-0.3,0.2-0.6,0.5-0.7,0.9c-0.1,0.1-0.1,0.3-0.1,0.5v0.3v0.3v0.5v1
			c1.6,0,0.2,0,2.1-0.1v-0.1v-0.2v-1.1v-0.3c0-0.2,0-0.2,0.1-0.5s0-0.4,0.2-0.6c0.1-0.1,0.1-0.1,0.1-0.2L-125.9,649.5L-125.9,649.5z
			"/>
		<path id="svg_187" class="st9" d="M-120.8,648.4C-120.8,648.4-120.8,648.3-120.8,648.4c-0.1-0.2-0.4-0.2-0.8-0.2
			c-1.2,0-2.2,0.6-2.5,1.4h0.2l-0.2,0.4h-0.1v0.1l0,0v0.6v0.4v1.7v0.1l1.9-0.2v-2c0-0.1,0-0.1,0-0.2c0-0.2,0.1-0.4,0.1-0.5
			c0.1-0.2,0.2-0.4,0.4-0.6c0.2-0.2,0.4-0.3,0.7-0.5C-120.9,648.7-120.7,648.5-120.8,648.4L-120.8,648.4z"/>
	</g>
	<g id="svg_188" class="st8">
		<path id="svg_189" class="st9" d="M-127.4,653L-127.4,653c0.1,0,0.3,0,0.4,0s0.1,0,0.2,0l0,0c-0.1,0-0.1,0-0.2,0
			S-127.3,653-127.4,653z"/>
		<path id="svg_190" class="st9" d="M-127,644.9"/>
		<path id="svg_191" class="st9" d="M-127,644.9"/>
		<path id="svg_192" class="st9" d="M-130.1,652.8c0.2,0,0.4,0,0.6,0.1l0,0C-129.7,652.8-129.9,652.8-130.1,652.8L-130.1,652.8z"/>
		<path id="svg_193" class="st9" d="M-127.4,651.5v-0.3v-0.3c0-0.2-0.1-0.3-0.1-0.5c-0.2-0.7-0.8-1.1-1.5-1.3v0.7h-1
			c0.2,0.1,0,0,0.3,0.3c0.2,0.2,0.1,0.3,0.2,0.6c0.1,0.3,0,0.3,0.1,0.5v0.3v1.4c0.7,0.1,1.4,0.1,2.1,0.1v-1L-127.4,651.5
			C-127.3,651.5-127.4,651.5-127.4,651.5z"/>
		<path id="svg_194" class="st9" d="M-130.1,652.8L-130.1,652.8V651v-0.4V650l0,0c0-0.2-0.1-0.3-0.1-0.5c-0.2-0.8-1.3-1.5-2.6-1.5
			c-0.4,0-0.7,0-0.8,0.2l0,0c-0.1,0.2,0.1,0.4,0.3,0.5c0.3,0.2,0.5,0.3,0.7,0.5c0.2,0.2,0.3,0.4,0.4,0.6c0,0.1,0.1,0.3,0.1,0.5
			c0,0.1,0,0.1,0,0.2v1.9"/>
	</g>
	<path id="svg_195" class="st10" d="M-113.5,632.6c2.5,0,4.8,0.3,6.9,0.7v-0.2c-2-0.4-4.2-0.6-6.6-0.6c-0.8,0-1.6,0-2.4,0.1
		c0.3-1.1,0.5-2.3,0.4-3.8c0-2.5-0.8-4.5-2.3-6c0.8-2.1-0.3-4.7-0.3-4.7s-2-0.2-5,1.9c-1.4-0.4-2.9-0.5-4.5-0.5
		c-1.7,0-3.3,0.2-4.9,0.7l0,0c-2.5-2-5.2-2-5.2-2s-1.2,3-0.2,5.1l0,0c-1.8,1.9-2.7,4.5-1.8,7.9c0.2,0.6,0.3,1.2,0.5,1.7
		c-0.7,0-1.4-0.1-2.1-0.1c-2.4,0-4.6,0.2-6.6,0.7v0.2c2-0.5,4.4-0.7,6.9-0.7c0.6,0,1.3,0,1.9,0.1c0.1,0.3,0.3,0.6,0.4,0.9
		c-0.8,0-1.7,0-2.6,0.1c-2.4,0.1-4.6,0.5-6.5,1v0.2c2-0.6,4.3-1,6.8-1.1c0.8,0,1.6-0.1,2.3-0.1c1.6,2.7,4.1,3.8,7.9,4.1
		c-0.9,0.5-1.5,1.4-1.6,2.4c-4.5,1.8-4.5-2.4-7-3.1c-0.2-0.1-0.3-0.1-0.5-0.1c-0.5-0.1-1,0-1.1,0.2l0,0v0.1c0,0.1,0,0.1,0.1,0.2
		c0.1,0.2,0.4,0.4,0.8,0.5c0.3,0.2,0.7,0.5,0.9,0.6c1.5,1.7,1.7,4.8,6.8,3.8v1.6v2.1c0,0.1,0,0.1,0,0.2c0,0.2-0.1,0.4-0.1,0.5
		c-0.1,0.2-0.2,0.4-0.4,0.6c-0.2,0.2-0.4,0.3-0.7,0.5c-0.2,0.1-0.4,0.3-0.3,0.5l0,0c0.1,0.2,0.3,0.2,0.8,0.2c1.3,0,2.3-0.6,2.6-1.5
		c0.1-0.1,0.1-0.3,0.1-0.5l0,0v-0.6V646v-2v-2c0.1-0.8,0.5-1.4,0.6-1.3v1.3v3.5v2.1v0.3c0,0.2,0,0.2-0.1,0.5c-0.1,0.3,0,0.4-0.2,0.6
		c-0.3,0.3,0,0.1-0.4,0.3c-0.2,0.1-0.2,0.3-0.2,0.5c0.1,0.2,0.2,0.3,0.7,0.3c1.1-0.2,1.9-0.6,2.2-1.5c0.1-0.1,0.1-0.3,0.1-0.5v-0.3
		v-0.3V647v-1.6v-5c0-0.2,0.1-0.3,0.3-0.3c0.1,0,0.3,0.1,0.3,0.3v5v1.6v0.5v0.3v0.3c0,0.2,0,0.3,0.1,0.5c0.2,0.8,1.1,1.3,2.2,1.5
		c0.4,0.1,0.6-0.1,0.7-0.3c0-0.2,0-0.4-0.2-0.5c-0.4-0.2-0.1,0-0.4-0.3c-0.2-0.2-0.1-0.4-0.2-0.6c-0.1-0.3,0-0.3-0.1-0.5v-0.3v-2.1
		V642v-1.3c0.1-0.1,0.5,0.4,0.6,1.3v2.1v1.7v0.4v0.6l0,0c0,0.2,0,0.3,0.1,0.5c0.2,0.8,1.3,1.5,2.6,1.5c0.4,0,0.7,0,0.8-0.2l0,0
		c0.1-0.2-0.1-0.4-0.3-0.5c-0.3-0.2-0.5-0.3-0.7-0.5c-0.2-0.2-0.3-0.4-0.4-0.6c0-0.1-0.1-0.3-0.1-0.5c0-0.1,0-0.1,0-0.2v-2.1v-3.4
		c0-1.1-0.7-2.3-1.7-2.8c3.7-0.2,6.5-1.3,7.9-4.1c0.8,0,1.6,0,2.5,0.1c2.5,0.1,4.8,0.5,6.8,1.1v-0.2c-1.9-0.5-4.1-0.9-6.5-1
		c-0.9-0.1-1.8-0.1-2.7-0.1c0.1-0.3,0.2-0.6,0.3-0.9C-114.9,632.6-114.2,632.6-113.5,632.6L-113.5,632.6z"/>
	<path id="svg_196" class="st0" d="M-128,635.1"/>
	<g id="svg_197">
		<path id="svg_198" class="st11" d="M-118,631.7c0-2.5-1.8-4.5-4.3-4.5l0,0c-2.7,0-3.1,0.2-4.9,0.2c-1.8,0-2.2-0.2-4.7-0.2
			c-0.1,0-0.2,0-0.4,0c-2.4,0-4.3,1.9-4.3,4.4c0,1.9,1.2,3.8,3,4.5l0,0c0,0.2,3.6,1.6,11.3,0.6c0.3,0,0.7-0.1,1.1-0.2l0,0l0,0
			C-119.3,635.8-118,633.7-118,631.7z"/>
		<path id="svg_199" class="st12" d="M-132.2,627.6c0.1,0,0.3,0,0.4,0c2.5,0,2.9,0.2,4.7,0.2s2.2-0.2,4.9-0.2l0,0
			c2.4,0,4.1,1.9,4.3,4.2c0-0.1,0-0.1,0-0.2c0-2.5-1.8-4.5-4.3-4.5l0,0c-2.7,0-3.1,0.2-4.9,0.2s-2.2-0.2-4.7-0.2c-0.1,0-0.2,0-0.4,0
			c-2.4,0-4.3,1.9-4.3,4.4c0,0.1,0,0.1,0,0.2C-136.3,629.4-134.5,627.6-132.2,627.6z"/>
		<ellipse id="svg_200" class="st6" cx="-132.2" cy="631.6" rx="1.9" ry="2.8"/>
		<ellipse id="svg_201" class="st13" cx="-132" cy="631.6" rx="1.3" ry="1.8"/>
		<circle id="svg_202" class="st6" cx="-132.6" cy="630.8" r="0.4"/>
		<ellipse id="svg_203" class="st6" cx="-122" cy="631.6" rx="1.9" ry="2.8"/>
		<ellipse id="svg_204" class="st13" cx="-122.2" cy="631.6" rx="1.3" ry="1.8"/>
		<circle id="svg_205" class="st6" cx="-122.5" cy="630.9" r="0.3"/>
		<circle id="svg_206" class="st13" cx="-127.2" cy="634" r="0.5"/>
		<path id="svg_207" class="st13" d="M-126.3,635.1c-0.1,0-0.1,0.1-0.1,0.2c-0.1,0.3-0.4,0.5-0.8,0.5c-0.4,0-0.7-0.2-0.8-0.5
			c0-0.1-0.1-0.2-0.1-0.2s-0.1,0.1-0.1,0.2c0.1,0.4,0.5,0.8,1.1,0.8c0.5,0,1-0.3,1.1-0.8C-126.2,635.2-126.2,635.1-126.3,635.1
			L-126.3,635.1z"/>
	</g>
	<path id="svg_208" class="st7" d="M-139.8,639.3c0,0.2-0.2,0.3-0.3,0.3c-0.1,0-0.3-0.2-0.3-0.3c0-0.1,0.3-1.4,0.3-1.4
		S-139.8,639.2-139.8,639.3z"/>
	<ellipse id="svg_209" class="st14" cx="-138.8" cy="637.7" rx="0.2" ry="0.2"/>
	<ellipse id="svg_210" class="st14" cx="-138.1" cy="638.2" rx="0.2" ry="0.2"/>
	
		<ellipse id="svg_211" transform="matrix(-0.9227 0.3856 -0.3856 -0.9227 -17.9716 1281.5938)" class="st14" cx="-137.5" cy="639" rx="0.2" ry="0.3"/>
	
		<ellipse id="svg_212" transform="matrix(-0.7546 0.6562 -0.6562 -0.7546 180.0325 1212.4304)" class="st14" cx="-136.7" cy="639.9" rx="0.2" ry="0.3"/>
	
		<ellipse id="svg_213" transform="matrix(-0.5 0.866 -0.866 -0.5 351.1188 1078.5482)" class="st14" cx="-135.8" cy="640.6" rx="0.2" ry="0.3"/>
	
		<ellipse id="svg_214" transform="matrix(-0.1325 0.9912 -0.9912 -0.1325 483.0664 859.5881)" class="st14" cx="-134.6" cy="641.2" rx="0.2" ry="0.3"/>
	
		<ellipse id="svg_215" transform="matrix(-0.9977 6.730883e-02 -6.730883e-02 -0.9977 -223.3713 1289.7113)" class="st14" cx="-133.4" cy="641.1" rx="0.3" ry="0.2"/>
	<path id="svg_216" class="st14" d="M-132.1,640.8c0,0.1,0,0.2-0.2,0.3s-0.3-0.1-0.3-0.2s0.1-0.2,0.3-0.3S-132.1,640.7-132.1,640.8z
		"/>
	<path id="svg_217" d="M-130.4,637.8c-0.4,0.2-0.7,0.5-0.9,0.8c0.3-0.1,8.3-1.8,9.1,1.9c-0.1-1.1-0.7-2.1-1.7-2.7
		C-127.1,638.1-130.4,637.8-130.4,637.8z"/>
	<path id="svg_218" d="M-132,640.3c0,1.2,0,2.2,0,2.2s-0.1,0-0.2,0C-132.2,642.5-132.4,641.5-132,640.3z"/>
	<path id="svg_219" class="st7" d="M-127,648.9"/>
	<path id="svg_220" class="st7" d="M-127,640.8"/>
	<line id="svg_221" class="st0" x1="-124.3" y1="649.9" x2="-125.4" y2="649.5"/>
	<line id="svg_222" class="st0" x1="-124.2" y1="652.9" x2="-122.8" y2="652.9"/>
	<line id="svg_223" class="st0" x1="-123.8" y1="652.8" x2="-124.2" y2="652.9"/>
	<line id="svg_224" class="st0" x1="-123.4" y1="652.8" x2="-123.7" y2="652.8"/>
	<line id="svg_225" class="st0" x1="-123.8" y1="652.8" x2="-124.1" y2="652.9"/>
	<line id="svg_226" class="st0" x1="-123.7" y1="652.8" x2="-123.8" y2="652.8"/>
	<line id="svg_227" class="st0" x1="-122.3" y1="652.6" x2="-122.7" y2="652.7"/>
	<line id="svg_228" class="st0" x1="-123" y1="652.7" x2="-122.7" y2="652.7"/>
	<line id="svg_229" class="st0" x1="-123.4" y1="652.8" x2="-123" y2="652.7"/>
	<line id="svg_230" class="st0" x1="-123.7" y1="652.8" x2="-123.4" y2="652.8"/>
	<line id="svg_231" class="st0" x1="-123.4" y1="652.8" x2="-123.4" y2="652.8"/>
	<line id="svg_232" class="st0" x1="-124.2" y1="652.9" x2="-124.3" y2="652.9"/>
	<line id="svg_233" class="st0" x1="-122.3" y1="652.6" x2="-122.3" y2="652.6"/>
</g>
<text id="issueTracker" transform="matrix(0.9271 0 0 1 -256.0107 681.2939)" class="st15 st16">ISSUE TRACKER</text>
<text id="gitHub1" transform="matrix(0.9271 0 0 1 -234.9009 694.4941)" class="st15 st16">GitHub</text>
<text id="think" transform="matrix(1 0 0 1 -258.3569 568.7954)" class="st15 st16">THINK</text>
<text id="code" transform="matrix(1 0 0 1 -168.6323 568.7954)" class="st15 st16">CODE</text>
<text id="deliver" transform="matrix(1 0 0 1 -77.8682 568.7954)" class="st15 st16">LEARN</text>
<text id="run" transform="matrix(1 0 0 1 1.8564 568.7954)" class="st15 st16">CULTURE</text>
<text id="repository" transform="matrix(0.9271 0 0 1 -157.3945 681.2939)" class="st15 st16">REPOSITORY</text>
<text id="gitHub2" transform="matrix(0.9271 0 0 1 -142.0966 694.4941)" class="st15 st16">GitHub</text>
<text id="bluemix" transform="matrix(0.9271 0 0 1 36.293 681.2939)" class="st15 st16">SLACK</text>
<text id="webIde" transform="matrix(0.9271 0 0 1 -138.2354 794.5)" class="st15 st16">JIRA</text>
<text id="devops" transform="matrix(1 0 0 1 -60.6 681.2939)" class="st15 st16">DEVOPS</text>
<text id="insights" transform="matrix(1 0 0 1 -63.6 694.4941)" class="st15 st16">INSIGHTS</text>
<g>
	<g>
		<path class="st17" d="M-127.4,746.8h-1.9c-0.2,0-0.3,0.1-0.3,0.3v11.3c0,0.2,0.1,0.3,0.3,0.3h1.9c0.2,0,0.3-0.1,0.3-0.3v-11.3
			C-127.1,746.9-127.2,746.8-127.4,746.8z"/>
		<path class="st17" d="M-115.5,758.2l-2.6-3.7c1.1-0.5,1.7-1.4,1.7-2.9v-1.5c0-2.3-1.2-3.3-3.8-3.3h-4.6c-0.2,0-0.3,0.1-0.3,0.3
			v11.3c0,0.2,0.1,0.3,0.3,0.3h1.9c0.2,0,0.3-0.1,0.3-0.3v-3.5h1.9l2.6,3.7c0.1,0.1,0.2,0.1,0.2,0.1h2.2l0,0c0.2,0,0.3-0.1,0.3-0.3
			C-115.4,758.3-115.4,758.2-115.5,758.2z M-122.6,749h2.4c1.2,0,1.5,0.5,1.5,1.2v1.2c0,1-0.4,1.3-1.5,1.3h-2.4V749z"/>
	</g>
	<path class="st17" d="M-109.4,747c0-0.1-0.2-0.2-0.3-0.2h-2.8c-0.1,0-0.2,0.1-0.3,0.2l-3.6,11.3c0,0.1,0,0.2,0,0.3
		c0.1,0.1,0.1,0.1,0.2,0.1h1.9c0.1,0,0.2-0.1,0.3-0.2l2.4-8.3c0,0,0.1-0.2,0.3-0.2c0.2,0,0.3,0.2,0.3,0.2l1.1,3.9h-1.6
		c-0.1,0-0.2,0.1-0.3,0.2l-0.4,1.6c0,0.1,0,0.2,0,0.3c0.1,0.1,0.1,0.1,0.2,0.1h3l0.7,2.2c0,0.1,0.2,0.2,0.3,0.2h1.9
		c0.1,0,0.2,0,0.2-0.1c0.1-0.1,0.1-0.2,0-0.3L-109.4,747z"/>
	<path class="st17" d="M-131.7,746.8h-1.9c-0.2,0-0.3,0.1-0.3,0.3v8.8c0,1.1-0.8,1.5-1.4,1.5c-0.1,0-0.2,0-0.2,0.1
		c0,0.1-0.1,0.2,0,0.2l0.5,1.5c0,0.1,0.2,0.2,0.4,0.2c1.8,0,3.3-1.4,3.3-3.3V747c0-0.1,0-0.2-0.1-0.2
		C-131.6,746.8-131.6,746.8-131.7,746.8z"/>
	<g>
		<g>
			<g>
				<g>
					<path class="st17" d="M-146.3,743.7c-0.6,0-1,0.5-1,1s0.5,1,1,1c0.6,0,1-0.5,1-1C-145.2,744.2-145.7,743.7-146.3,743.7
						L-146.3,743.7L-146.3,743.7z"/>
				</g>
			</g>
			<g>
				<g>
					<path class="st17" d="M-139.4,743.7c-0.6,0-1,0.5-1,1s0.5,1,1,1s1-0.5,1-1S-138.8,743.7-139.4,743.7L-139.4,743.7L-139.4,743.7
						z"/>
				</g>
			</g>
		</g>
		<g>
			<g>
				<path class="st17" d="M-142.8,742.7c-0.6,0-1,0.5-1,1s0.5,1,1,1c0.6,0,1-0.5,1-1S-142.3,742.7-142.8,742.7L-142.8,742.7
					L-142.8,742.7z"/>
			</g>
		</g>
	</g>
	<g>
		<path class="st17" d="M-136.9,746.6c-0.1,0-0.1-0.1-0.2-0.1h-0.1c-0.7,0.3-1.4,0.5-2.1,0.6c-0.1,0-0.2,0.1-0.3,0.2
			c-0.5,1.3-1.7,2.6-3,3.9c0,0-0.1,0.1-0.2,0.1c-0.1,0-0.2-0.1-0.2-0.1c-1.3-1.3-2.5-2.5-3-3.9c0-0.1-0.2-0.2-0.3-0.2
			c-0.7-0.2-1.4-0.4-2.1-0.6h-0.1c-0.1,0-0.1,0-0.2,0.1c-0.1,0.1-0.1,0.2-0.1,0.3c0.1,1.1,0.5,2.2,1.3,3.3c0.7,1,1.7,2,2.6,3
			c1.7,1.7,3.3,3.4,3.4,5.3c0,0.2,0.2,0.3,0.3,0.3h2c0.1,0,0.2,0,0.2-0.1c0.1-0.1,0.1-0.2,0.1-0.2c-0.1-1.3-0.5-2.5-1.5-3.9
			c-0.2-0.3-0.4-0.6-0.6-0.8c-0.1-0.1,0-0.2,0-0.3c0.1-0.1,0.1-0.1,0.2-0.2c0.9-0.9,1.9-1.9,2.6-3c0.8-1.1,1.2-2.2,1.3-3.3
			C-136.8,746.8-136.8,746.7-136.9,746.6z"/>
		<g>
			<path class="st17" d="M-145,754.6c0,0-0.1-0.1-0.2-0.1c-0.1,0-0.2,0.1-0.3,0.2c-0.8,1.3-1.3,2.5-1.3,3.7c0,0.1,0,0.2,0.1,0.2
				c0.1,0.1,0.1,0.1,0.2,0.1h2c0.2,0,0.3-0.1,0.3-0.3c0-0.6,0.2-1.2,0.6-1.8c0.1-0.2,0-0.4,0-0.5C-144,755.7-144.4,755.2-145,754.6z
				"/>
		</g>
		<path class="st17" d="M-142.8,747.6c0.6,0,1,0,1.1,0c0.2,0,0.3,0.1,0.3,0.3v0.1c-0.1,0.2-0.5,1-1.2,1.7c-0.1,0.1-0.2,0.1-0.2,0.1
			l0,0c-0.1,0-0.2,0-0.2-0.1c-0.7-0.7-1.1-1.5-1.2-1.7v-0.1c0-0.2,0.1-0.3,0.3-0.3C-143.8,747.5-143.5,747.6-142.8,747.6
			L-142.8,747.6z"/>
	</g>
</g>
<rect id="svg_121_1_" x="-77.7" y="551" class="st18" width="71.7" height="4.5"/>
<rect id="svg_121_2_" x="2" y="551" class="st18" width="91.3" height="4.5"/>
<g id="XMLID_4_">
	<g id="XMLID_6_">
		<path id="XMLID_21_" class="st19" d="M57.3,625.1c-0.4-1.3-1.8-2-3.2-1.5c-1.4,0.4-2,1.8-1.5,3.1l6.5,19.5
			c0.4,1.2,1.8,1.9,3.1,1.5c1.3-0.3,2.1-1.8,1.7-3.1C63.7,644.6,57.3,625.1,57.3,625.1z"/>
		<path id="XMLID_20_" class="st20" d="M47.2,628.3c-0.4-1.3-1.8-2-3.2-1.5c-1.3,0.4-2,1.8-1.5,3.1l6.5,19.5
			c0.4,1.2,1.8,1.9,3.1,1.5c1.3-0.3,2.1-1.8,1.7-3.1L47.2,628.3z"/>
		<path id="XMLID_19_" class="st21" d="M65.3,641.3c1.3-0.4,2-1.8,1.5-3.1c-0.4-1.3-1.8-2-3.2-1.5l-19.9,6.4c-1.2,0.4-1.9,1.8-1.5,3
			c0.3,1.3,1.8,2.1,3.2,1.6C45.4,647.5,65.3,641.3,65.3,641.3z"/>
		<path id="XMLID_18_" class="st22" d="M48.1,646.8c1.3-0.4,3.1-0.9,4.7-1.5c-0.4-1.3-0.9-3-1.5-4.6l-4.7,1.5L48.1,646.8z"/>
		<path id="XMLID_12_" class="st23" d="M58.1,643.6c1.8-0.6,3.5-1.1,4.7-1.5c-0.4-1.3-0.9-3-1.5-4.6l-4.7,1.5L58.1,643.6z"/>
		<path id="XMLID_11_" class="st24" d="M62.1,631.4c1.3-0.4,2-1.8,1.5-3.1c-0.4-1.3-1.8-2-3.2-1.5l-19.9,6.3c-1.2,0.4-1.9,1.8-1.5,3
			c0.3,1.3,1.8,2.1,3.2,1.6C42.2,637.8,62.1,631.4,62.1,631.4z"/>
		<path id="XMLID_10_" class="st25" d="M44.8,636.9c1.3-0.4,3.1-0.9,4.7-1.5c-0.6-1.8-1.1-3.4-1.5-4.6l-4.7,1.5L44.8,636.9z"/>
		<path id="XMLID_7_" class="st26" d="M54.8,633.7c1.8-0.5,3.5-1.1,4.7-1.5c-0.6-1.8-1.1-3.4-1.5-4.6l-4.7,1.5L54.8,633.7z"/>
	</g>
</g>
<circle id="svg_83" class="st1" cx="-39.2" cy="635.4" r="26.5"/>
<path id="svg_100" class="st27" d="M-36.2,646.3l-6.8,0.5c-0.6,0-1.1-0.4-1.2-1l0,0c0-0.6,0.4-1.1,1-1.2l6.8-0.5
	c0.6,0,1.1,0.4,1.2,1l0,0C-35.1,645.8-35.6,646.3-36.2,646.3z"/>
<path id="svg_101" class="st27" d="M-36.2,649.6l-6.8,0.5c-0.6,0-1.1-0.4-1.2-1l0,0c0-0.6,0.4-1.1,1-1.2l6.8-0.4
	c0.6,0,1.1,0.4,1.2,1l0,0C-35.1,649.1-35.6,649.6-36.2,649.6L-36.2,649.6z"/>
<g id="svg_102">
	<path id="svg_103" class="st28" d="M-43.1,651.2L-43.1,651.2c0.1,1.9,1.7,3.4,3.5,3.4c2,0,3.6-1.7,3.6-3.8c0,0,0,0,0-0.1
		L-43.1,651.2L-43.1,651.2z"/>
</g>
<g id="svg_104">
	<path id="svg_105" class="st29" d="M-28.9,628.3c0-5.9-4.8-10.8-10.8-10.8s-10.8,4.8-10.8,10.8c0,2.8,1,5.3,2.7,7.1
		c1.7,2.1,2.5,2.8,2.5,6.3v0.3c0,0.5,0.4,0.9,0.9,0.9h9.2c0.5,0,0.9-0.4,0.9-0.9v-0.2c0-3.7,0.9-4.3,2.8-6.7l0,0
		C-29.8,633.3-28.9,630.9-28.9,628.3L-28.9,628.3z"/>
	<path id="svg_106" class="st29" d="M-31.3,635.2l0.1-0.2C-31.2,635-31.3,635.1-31.3,635.2L-31.3,635.2z"/>
</g>
<path id="svg_107" class="st30" d="M-28.9,628.3c0-5.9-4.8-10.8-10.8-10.8v25.4h4.6c0.5,0,0.9-0.4,0.9-0.9v-0.2
	c0-3.7,0.9-4.3,2.8-6.7l0,0C-29.8,633.3-28.9,630.9-28.9,628.3z"/>
<path id="svg_108" class="st31" d="M-35.1,648.6v-0.4c0-0.5-0.5-0.9-1-0.9l-3.5,0.3v2.3l3.7-0.3C-35.5,649.6-35.1,649.1-35.1,648.6
	L-35.1,648.6z"/>
<path id="svg_109" class="st31" d="M-35.1,645.3V645c0-0.5-0.5-0.9-1-0.9l-3.5,0.3v2.2l3.7-0.3C-35.5,646.3-35.1,645.8-35.1,645.3z"
	/>
<path id="svg_110" class="st32" d="M-36,650.7l-3.6,0.3v3.6C-37.6,654.6-36,652.9-36,650.7C-36,650.8-36,650.8-36,650.7L-36,650.7z"
	/>
<circle id="svg_111" class="st33" cx="-39.6" cy="628.5" r="6.7"/>
<path id="svg_112" class="st34" d="M-39.6,621.8v13.4c3.7,0,6.7-3,6.7-6.7C-33,624.8-35.9,621.8-39.6,621.8z"/>
<path id="svg_113" class="st35" d="M-34.5,632.8c1.3-1.6,1.8-3.6,1.5-5.5l-6.6,1.2l-4.3,5.1C-41.1,636-36.9,635.6-34.5,632.8z"/>
</svg>
