<?xml version="1.0" encoding="utf-8"?>
<!-- Generator: Adobe Illustrator 19.0.0, SVG Export Plug-In . SVG Version: 6.00 Build 0)  -->
<svg version="1.1" id="Layer_1" xmlns="http://www.w3.org/2000/svg" xmlns:xlink="http://www.w3.org/1999/xlink" x="0px" y="0px"
	 viewBox="-508 1065.9 369 260" style="enable-background:new -508 1065.9 369 260;" xml:space="preserve">
<style type="text/css">
	.st0{fill:none;}
	.st1{fill:#FFFFFF;stroke:#5AAAFA;stroke-miterlimit:10;}
	.st2{fill:#EEC02B;}
	.st3{fill:#1CB3A0;}
	.st4{fill:none;stroke:#5AAAFA;stroke-width:2;stroke-miterlimit:10;}
	.st5{fill:#5AAAFA;}
	.st6{fill:#FFFFFF;}
	.st7{opacity:0.77;fill:#9CDAF0;enable-background:new    ;}
	.st8{opacity:0.35;}
	.st9{opacity:0.77;fill:#201F1F;enable-background:new    ;}
	.st10{fill:#201F1F;}
	.st11{fill:#F4CAB1;}
	.st12{opacity:0.5;fill:#AC5C51;enable-background:new    ;}
	.st13{fill:#AC5C51;}
	.st14{fill:#9CDAF0;}
	.st15{font-family:'Arial'; font-weight: bold;}
	.st16{font-size:11.2912px;}
	.st17{fill:#205081;}
	.st18{fill:#FC5255;}
	.st19{fill:#E8A723;}
	.st20{fill:#3EB890;}
	.st21{fill:#E01765;}
	.st22{fill:#472A49;}
	.st23{fill:#CC2027;}
	.st24{fill:#70CADB;}
	.st25{fill:#1A937D;}
	.st26{fill:#65863A;}
	.st27{fill:#2E3737;}
	.st28{fill:#586565;}
	.st29{fill:#FCE77F;}
	.st30{fill:#FCD432;}
	.st31{fill:#030506;}
	.st32{fill:#3D4747;}
	.st33{fill:#975AD1;}
	.st34{fill:#FC42A0;}
	.st35{fill:#64BC46;}
</style>
<g>
	<title>background</title>
	<rect id="canvas_background" x="-508" y="1065.9" class="st0" width="369" height="260"/>
</g>
<title>Layer 1</title>
<ellipse id="svg_1" class="st1" cx="-370.6" cy="1147.5" rx="27.6" ry="27.2"/>
<ellipse id="svg_2" class="st1" cx="-460.8" cy="1147.8" rx="27.6" ry="27.2"/>
<rect id="svg_3" x="-507" y="1065.9" class="st2" width="87" height="4.6"/>
<rect id="svg_4" x="-413.5" y="1065.9" class="st3" width="87" height="4.6"/>
<ellipse id="svg_8" class="st1" cx="-183.5" cy="1147.5" rx="27.6" ry="27.2"/>
<line id="svg_9" class="st4" x1="-461.3" y1="1101.8" x2="-371" y2="1101.8"/>
<g id="svg_10">
	<g id="svg_11">
		<polyline id="svg_12" class="st4" points="-461.3,1112.9 -461.3,1101.8 -371,1101.8 -371,1115.2 		"/>
		<g id="svg_13">
			<polygon id="svg_14" class="st5" points="-456.1,1111.5 -461.3,1120.3 -466.5,1111.5 			"/>
		</g>
	</g>
</g>
<g id="svg_16">
	<g id="svg_17">
		<line id="svg_18" class="st4" x1="-324.1" y1="1147.5" x2="-334.8" y2="1147.5"/>
		<g id="svg_19">
			<polygon id="svg_20" class="st5" points="-325.5,1142.4 -316.6,1147.5 -325.5,1152.6 			"/>
		</g>
	</g>
</g>
<g id="svg_21">
	<g id="svg_22">
		<line id="svg_23" class="st4" x1="-228.8" y1="1147.5" x2="-239.5" y2="1147.5"/>
		<g id="svg_24">
			<polygon id="svg_25" class="st5" points="-230.2,1142.4 -221.3,1147.5 -230.2,1152.6 			"/>
		</g>
	</g>
</g>
<ellipse id="svg_26" class="st1" cx="-462.7" cy="1271.1" rx="27.6" ry="27.2"/>
<path id="XMLID_13_" class="st6" d="M-462.1,1274.1h-0.4c-0.2,0-0.3-0.1-0.3-0.3v-5c0-0.2,0.1-0.3,0.3-0.3h0.4
	c0.2,0,0.3,0.1,0.3,0.3v4.9C-461.7,1273.9-461.9,1274.1-462.1,1274.1z"/>
<path id="XMLID_9_" class="st6" d="M-472.7,1265.7c-2.3,0-4.2,2-4.2,4.4c0,2.5,1.9,4.4,4.2,4.4c2.3,0,4.1-2.1,4.1-4.4
	C-468.6,1267.7-470.4,1265.7-472.7,1265.7z M-472.7,1273.7c-1.9,0-3.3-1.5-3.3-3.5s1.5-3.6,3.3-3.6s3.3,1.5,3.3,3.6
	C-469.4,1272.2-470.9,1273.7-472.7,1273.7z"/>
<path id="XMLID_8_" class="st6" d="M-464.3,1270.3v-0.3c0-0.8-0.7-1.5-1.6-1.5h-0.1h-1.1l0,0c-0.3,0-0.5,0.2-0.5,0.5v4.5
	c0,0.3,0.2,0.5,0.5,0.5l0,0c0.3,0,0.5-0.2,0.5-0.5v-1.3l1.2,1.6c0.2,0.2,0.5,0.3,0.7,0.1l0,0c0.2-0.2,0.3-0.5,0.1-0.7l-1-1.4
	C-464.8,1271.6-464.3,1271-464.3,1270.3L-464.3,1270.3z M-465.1,1270.2c0,0.4-0.3,0.8-0.8,0.8h-0.6l0,0v-1.6h0.6
	C-465.5,1269.2-465.1,1269.7-465.1,1270.2L-465.1,1270.2z"/>
<g id="svg_125">
	<path id="svg_126" class="st0" d="M-149.1,1147.5"/>
</g>
<g id="svg_132">
	<path id="svg_133" class="st7" d="M-448.2,1161.3c0,2.4-5.3,4.2-12,4.2s-12-1.8-12-4.2c0-2.4,5.3-4.1,12-4.1
		S-448.2,1159-448.2,1161.3z"/>
	<g id="svg_134" class="st8">
		<path id="svg_135" class="st9" d="M-459.2,1162c-0.3,0.2-0.6,0.5-0.7,0.9c-0.1,0.1-0.1,0.3-0.1,0.5v0.3v0.3v0.5v1
			c1.7,0,0.2,0,2.2-0.1v-0.1v-0.2v-1.1v-0.3c0-0.2,0-0.2,0.1-0.5c0.1-0.3,0-0.4,0.2-0.6c0.1-0.1,0.1-0.1,0.1-0.2L-459.2,1162
			L-459.2,1162z"/>
		<path id="svg_136" class="st9" d="M-453.8,1160.7L-453.8,1160.7c-0.1-0.2-0.4-0.2-0.8-0.2c-1.2,0-2.3,0.6-2.6,1.4h0.2l-0.2,0.4
			h-0.1v0.1l0,0v0.6v0.4v1.7v0.1l2-0.2v-2.1c0-0.1,0-0.1,0-0.2c0-0.2,0.1-0.4,0.1-0.5c0.1-0.2,0.2-0.4,0.4-0.6
			c0.2-0.2,0.4-0.3,0.7-0.5C-453.9,1161.2-453.7,1161-453.8,1160.7z"/>
	</g>
	<g id="svg_137" class="st8">
		<path id="svg_138" class="st9" d="M-460.7,1165.5L-460.7,1165.5c0.1,0,0.3,0,0.4,0s0.1,0,0.2,0l0,0c-0.1,0-0.1,0-0.2,0
			C-460.4,1165.5-460.6,1165.5-460.7,1165.5z"/>
		<path id="svg_139" class="st9" d="M-460.3,1157.3"/>
		<path id="svg_140" class="st9" d="M-460.3,1157.3"/>
		<path id="svg_141" class="st9" d="M-463.5,1165.4c0.2,0,0.4,0,0.6,0.1l0,0C-463.1,1165.4-463.3,1165.4-463.5,1165.4L-463.5,1165.4
			z"/>
		<path id="svg_142" class="st9" d="M-460.7,1163.9v-0.3v-0.3c0-0.2-0.1-0.3-0.1-0.5c-0.2-0.7-0.8-1.1-1.6-1.3v0.7h-1
			c0.2,0.1,0,0,0.3,0.3c0.2,0.2,0.1,0.3,0.2,0.6c0.1,0.3,0,0.3,0.1,0.5v0.3v1.4c0.7,0.1,1.5,0.1,2.2,0.1v-1L-460.7,1163.9
			C-460.6,1163.9-460.7,1163.9-460.7,1163.9z"/>
		<path id="svg_143" class="st9" d="M-463.5,1165.4L-463.5,1165.4v-2v-0.4v-0.6l0,0c0-0.2-0.1-0.3-0.1-0.5c-0.2-0.8-1.4-1.5-2.7-1.5
			c-0.4,0-0.7,0-0.8,0.2l0,0c-0.1,0.2,0.1,0.4,0.3,0.5c0.3,0.2,0.5,0.3,0.7,0.5c0.2,0.2,0.3,0.4,0.4,0.6c0,0.1,0.1,0.3,0.1,0.5
			c0,0.1,0,0.1,0,0.2v2"/>
	</g>
	<path id="svg_144" class="st10" d="M-446.2,1144.6c2.6,0,5,0.3,7.2,0.7v-0.2c-2.1-0.4-4.4-0.6-6.9-0.6c-0.8,0-1.7,0-2.5,0.1
		c0.3-1.1,0.5-2.4,0.4-3.9c0-2.6-0.8-4.6-2.4-6.2c0.8-2.2-0.3-4.8-0.3-4.8s-2.1-0.2-5.2,2c-1.5-0.4-3-0.5-4.7-0.5
		c-1.8,0-3.4,0.2-5.1,0.7l0,0c-2.6-2.1-5.4-2.1-5.4-2.1s-1.2,3.1-0.2,5.2l0,0c-1.9,2-2.8,4.6-1.9,8.1c0.2,0.6,0.3,1.2,0.5,1.7
		c-0.7,0-1.5-0.1-2.2-0.1c-2.5,0-4.8,0.2-6.9,0.7v0.2c2.1-0.5,4.6-0.7,7.2-0.7c0.6,0,1.4,0,2,0.1c0.1,0.3,0.3,0.6,0.4,0.9
		c-0.8,0-1.8,0-2.7,0.1c-2.5,0.1-4.8,0.5-6.8,1v0.2c2.1-0.6,4.5-1,7.1-1.1c0.8,0,1.7-0.1,2.4-0.1c1.7,2.8,4.3,3.9,8.2,4.2
		c-0.9,0.5-1.6,1.4-1.7,2.5c-4.7,1.8-4.7-2.5-7.3-3.2c-0.2-0.1-0.3-0.1-0.5-0.1c-0.5-0.1-1,0-1.1,0.2l0,0v0.1c0,0.1,0,0.1,0.1,0.2
		c0.1,0.2,0.4,0.4,0.8,0.5c0.3,0.2,0.7,0.5,0.9,0.6c1.6,1.7,1.8,4.9,7.1,3.9v1.6v2.2c0,0.1,0,0.1,0,0.2c0,0.2-0.1,0.4-0.1,0.5
		c-0.1,0.2-0.2,0.4-0.4,0.6c-0.2,0.2-0.4,0.3-0.7,0.5c-0.2,0.1-0.4,0.3-0.3,0.5l0,0c0.1,0.2,0.3,0.2,0.8,0.2c1.4,0,2.4-0.6,2.7-1.5
		c0.1-0.1,0.1-0.3,0.1-0.5l0,0v-0.6v-0.4v-1.7v-2.5c0.1-0.8,0.5-1.4,0.6-1.3v1.3v3.6v2.2v0.3c0,0.2,0,0.2-0.1,0.5
		c-0.1,0.3,0,0.4-0.2,0.6c-0.3,0.3,0,0.1-0.4,0.3c-0.2,0.1-0.2,0.3-0.2,0.5c0.1,0.2,0.2,0.3,0.7,0.3c1.1-0.2,2-0.6,2.3-1.5
		c0.1-0.1,0.1-0.3,0.1-0.5v-0.3v-0.3v-0.5v-1.6v-5.1c0-0.2,0.1-0.3,0.3-0.3c0.1,0,0.3,0.1,0.3,0.3v5.1v1.6v0.5v0.3v0.3
		c0,0.2,0,0.3,0.1,0.5c0.2,0.8,1.1,1.3,2.3,1.5c0.4,0.1,0.6-0.1,0.7-0.3c0-0.2,0-0.4-0.2-0.5c-0.4-0.2-0.1,0-0.4-0.3
		c-0.2-0.2-0.1-0.4-0.2-0.6c-0.1-0.3,0-0.3-0.1-0.5v-0.3v-2.2v-3.6v-1.3c0.1-0.1,0.5,0.4,0.6,1.3v2.2v1.7v0.4v0.6l0,0
		c0,0.2,0,0.3,0.1,0.5c0.2,0.8,1.4,1.5,2.7,1.5c0.4,0,0.7,0,0.8-0.2l0,0c0.1-0.2-0.1-0.4-0.3-0.5c-0.3-0.2-0.5-0.3-0.7-0.5
		s-0.3-0.4-0.4-0.6c0-0.1-0.1-0.3-0.1-0.5c0-0.1,0-0.1,0-0.2v-2.2v-3.5c0-1.1-0.7-2.4-1.8-2.9c3.9-0.2,6.8-1.3,8.2-4.2
		c0.8,0,1.7,0,2.6,0.1c2.6,0.1,5,0.5,7.1,1.1v-0.2c-2-0.5-4.3-0.9-6.8-1c-0.9-0.1-1.9-0.1-2.8-0.1c0.1-0.3,0.2-0.6,0.3-0.9
		C-447.7,1144.6-447,1144.6-446.2,1144.6L-446.2,1144.6z"/>
	<path id="svg_145" class="st0" d="M-461.3,1147.1"/>
	<g id="svg_146">
		<path id="svg_147" class="st11" d="M-450.9,1143.6c0-2.6-1.9-4.6-4.5-4.6l0,0c-2.8,0-3.2,0.2-5.1,0.2s-2.3-0.2-4.9-0.2
			c-0.1,0-0.2,0-0.4,0c-2.5,0-4.5,2-4.5,4.5c0,2,1.2,3.9,3.1,4.6l0,0c0,0.2,3.7,1.6,11.8,0.6c0.3,0,0.7-0.1,1.1-0.2l0,0l0,0
			C-452.3,1147.8-450.9,1145.8-450.9,1143.6z"/>
		<path id="svg_148" class="st12" d="M-465.7,1139.5c0.1,0,0.3,0,0.4,0c2.6,0,3,0.2,4.9,0.2s2.3-0.2,5.1-0.2l0,0
			c2.5,0,4.3,2,4.5,4.3c0-0.1,0-0.1,0-0.2c0-2.6-1.9-4.6-4.5-4.6l0,0c-2.8,0-3.2,0.2-5.1,0.2s-2.3-0.2-4.9-0.2c-0.1,0-0.2,0-0.4,0
			c-2.5,0-4.5,2-4.5,4.5c0,0.1,0,0.1,0,0.2C-470,1141.3-468.1,1139.5-465.7,1139.5z"/>
		<ellipse id="svg_149" class="st6" cx="-465.7" cy="1143.5" rx="2" ry="2.9"/>
		<ellipse id="svg_150" class="st13" cx="-465.5" cy="1143.5" rx="1.4" ry="1.8"/>
		<ellipse id="svg_151" class="st6" cx="-466.1" cy="1142.8" rx="0.4" ry="0.4"/>
		<ellipse id="svg_152" class="st6" cx="-455.1" cy="1143.5" rx="2" ry="2.9"/>
		<ellipse id="svg_153" class="st13" cx="-455.3" cy="1143.6" rx="1.4" ry="1.8"/>
		<circle id="svg_154" class="st6" cx="-455.6" cy="1142.8" r="0.3"/>
		<ellipse id="svg_155" class="st13" cx="-460.5" cy="1146.1" rx="0.5" ry="0.5"/>
		<path id="svg_156" class="st13" d="M-459.6,1147.1c-0.1,0-0.1,0.1-0.1,0.2c-0.1,0.3-0.4,0.5-0.8,0.5s-0.7-0.2-0.8-0.5
			c0-0.1-0.1-0.2-0.1-0.2s-0.1,0.1-0.1,0.2c0.1,0.4,0.5,0.8,1.1,0.8c0.5,0,1-0.3,1.1-0.8C-459.5,1147.2-459.5,1147.1-459.6,1147.1z"
			/>
	</g>
	<path id="svg_157" class="st7" d="M-473.6,1151.5c0,0.2-0.2,0.3-0.3,0.3c-0.2,0-0.3-0.2-0.3-0.3s0.3-1.4,0.3-1.4
		S-473.6,1151.3-473.6,1151.5z"/>
	<ellipse id="svg_158" class="st14" cx="-472.6" cy="1149.8" rx="0.2" ry="0.2"/>
	<ellipse id="svg_159" class="st14" cx="-471.9" cy="1150.4" rx="0.2" ry="0.2"/>
	
		<ellipse id="svg_160" transform="matrix(0.9207 -0.3904 0.3904 0.9207 -486.8143 -92.6302)" class="st14" cx="-471.3" cy="1151.2" rx="0.2" ry="0.3"/>
	
		<ellipse id="svg_161" transform="matrix(0.7499 -0.6616 0.6616 0.7499 -879.9036 -23.0717)" class="st14" cx="-470.5" cy="1152.1" rx="0.2" ry="0.3"/>
	
		<ellipse id="svg_162" transform="matrix(0.4946 -0.8691 0.8691 0.4946 -1239.2784 174.7054)" class="st14" cx="-469.4" cy="1152.9" rx="0.2" ry="0.3"/>
	
		<ellipse id="svg_163" transform="matrix(0.1306 -0.9914 0.9914 0.1306 -1550.6794 538.1938)" class="st14" cx="-468.5" cy="1153.3" rx="0.2" ry="0.3"/>
	
		<ellipse id="svg_164" transform="matrix(0.9977 -6.828860e-02 6.828860e-02 0.9977 -79.8508 -29.2027)" class="st14" cx="-467.1" cy="1153.3" rx="0.3" ry="0.2"/>
	<path id="svg_165" class="st14" d="M-465.6,1152.9c0,0.1,0,0.2-0.2,0.3c-0.2,0-0.3-0.1-0.3-0.2s0.1-0.2,0.3-0.3
		C-465.6,1152.7-465.6,1152.8-465.6,1152.9z"/>
	<path id="svg_166" d="M-463.8,1150c-0.4,0.2-0.7,0.5-0.9,0.8c0.3-0.1,8.6-1.8,9.5,2c-0.1-1.1-0.7-2.2-1.8-2.8
		C-460.4,1150.3-463.8,1150-463.8,1150z"/>
	<path id="svg_167" d="M-465.5,1152.4c0,1.2,0,2.3,0,2.3s-0.1,0-0.2,0C-465.7,1154.7-465.9,1153.7-465.5,1152.4z"/>
	<path id="svg_168" class="st7" d="M-460.3,1161.3"/>
	<path id="svg_169" class="st7" d="M-460.3,1153"/>
	<line id="svg_170" class="st0" x1="-457.5" y1="1162.3" x2="-458.6" y2="1161.9"/>
	<line id="svg_171" class="st0" x1="-457.4" y1="1165.4" x2="-455.9" y2="1165.4"/>
	<line id="svg_172" class="st0" x1="-457" y1="1165.4" x2="-457.4" y2="1165.4"/>
	<line id="svg_173" class="st0" x1="-456.6" y1="1165.3" x2="-456.9" y2="1165.4"/>
	<line id="svg_174" class="st0" x1="-457" y1="1165.4" x2="-457.3" y2="1165.4"/>
	<line id="svg_175" class="st0" x1="-456.9" y1="1165.4" x2="-457" y2="1165.4"/>
	<line id="svg_176" class="st0" x1="-455.4" y1="1165.2" x2="-455.8" y2="1165.2"/>
	<line id="svg_177" class="st0" x1="-456.1" y1="1165.3" x2="-455.8" y2="1165.2"/>
	<line id="svg_178" class="st0" x1="-456.6" y1="1165.3" x2="-456.1" y2="1165.3"/>
	<line id="svg_179" class="st0" x1="-456.9" y1="1165.4" x2="-456.6" y2="1165.3"/>
	<line id="svg_180" class="st0" x1="-456.6" y1="1165.3" x2="-456.6" y2="1165.3"/>
	<line id="svg_181" class="st0" x1="-457.4" y1="1165.4" x2="-457.5" y2="1165.4"/>
	<line id="svg_182" class="st0" x1="-455.4" y1="1165.2" x2="-455.4" y2="1165.2"/>
</g>
<g id="svg_183">
	<path id="svg_184" class="st7" d="M-358.4,1159.2c0,2.4-5.3,4.2-12,4.2c-6.6,0-12-1.8-12-4.2c0-2.4,5.3-4.1,12-4.1
		S-358.4,1156.8-358.4,1159.2z"/>
	<g id="svg_185" class="st8">
		<path id="svg_186" class="st9" d="M-369.4,1159.8c-0.3,0.2-0.6,0.5-0.7,0.9c-0.1,0.1-0.1,0.3-0.1,0.5v0.3v0.3v0.5v1
			c1.7,0,0.2,0,2.2-0.1v-0.1v-0.1v-1.1v-0.3c0-0.2,0-0.2,0.1-0.5c0.1-0.3,0-0.4,0.2-0.6c0.1-0.1,0.1-0.1,0.1-0.2L-369.4,1159.8
			L-369.4,1159.8z"/>
		<path id="svg_187" class="st9" d="M-364.1,1158.7C-364.1,1158.7-364.1,1158.6-364.1,1158.7c-0.1-0.2-0.4-0.2-0.8-0.2
			c-1.2,0-2.3,0.6-2.6,1.4h0.2l-0.2,0.4h-0.1v0.1l0,0v0.6v0.4v1.7v0.1l2-0.2v-2.1c0-0.1,0-0.1,0-0.2c0-0.2,0.1-0.4,0.1-0.5
			c0.1-0.2,0.2-0.4,0.4-0.6c0.2-0.2,0.4-0.3,0.7-0.5C-364.2,1159-364,1158.8-364.1,1158.7L-364.1,1158.7z"/>
	</g>
	<g id="svg_188" class="st8">
		<path id="svg_189" class="st9" d="M-370.9,1163.4L-370.9,1163.4c0.1,0,0.3,0,0.4,0c0.1,0,0.1,0,0.2,0l0,0c-0.1,0-0.1,0-0.2,0
			C-370.6,1163.4-370.8,1163.4-370.9,1163.4z"/>
		<path id="svg_190" class="st9" d="M-370.5,1155.1"/>
		<path id="svg_191" class="st9" d="M-370.5,1155.1"/>
		<path id="svg_192" class="st9" d="M-373.8,1163.2c0.2,0,0.4,0,0.6,0.1l0,0C-373.3,1163.2-373.5,1163.2-373.8,1163.2L-373.8,1163.2
			z"/>
		<path id="svg_193" class="st9" d="M-370.9,1161.9v-0.3v-0.3c0-0.2-0.1-0.3-0.1-0.5c-0.2-0.7-0.8-1.1-1.6-1.3v0.7h-1
			c0.2,0.1,0,0,0.3,0.3c0.2,0.2,0.1,0.3,0.2,0.6c0.1,0.3,0,0.3,0.1,0.5v0.3v1.4c0.7,0.1,1.5,0.1,2.2,0.1v-1L-370.9,1161.9
			C-370.8,1161.9-370.9,1161.9-370.9,1161.9z"/>
		<path id="svg_194" class="st9" d="M-373.8,1163.2L-373.8,1163.2v-1.8v-0.4v-0.6l0,0c0-0.2-0.1-0.3-0.1-0.5
			c-0.2-0.8-1.4-1.5-2.7-1.5c-0.4,0-0.7,0-0.8,0.2l0,0c-0.1,0.2,0.1,0.4,0.3,0.5c0.3,0.2,0.5,0.3,0.7,0.5c0.2,0.2,0.3,0.4,0.4,0.6
			c0,0.1,0.1,0.3,0.1,0.5c0,0.1,0,0.1,0,0.2v2"/>
	</g>
	<path id="svg_195" class="st10" d="M-356.5,1142.5c2.6,0,5,0.3,7.2,0.7v-0.2c-2.1-0.4-4.4-0.6-6.9-0.6c-0.8,0-1.7,0-2.5,0.1
		c0.3-1.1,0.5-2.4,0.4-3.9c0-2.6-0.8-4.6-2.4-6.2c0.8-2.2-0.3-4.8-0.3-4.8s-2.1-0.2-5.2,2c-1.5-0.4-3-0.5-4.7-0.5
		c-1.8,0-3.4,0.2-5.1,0.7l0,0c-2.6-2.1-5.4-2.1-5.4-2.1s-1.2,3.1-0.2,5.2l0,0c-1.9,2-2.8,4.6-1.9,8.1c0.2,0.6,0.3,1.2,0.5,1.7
		c-0.7,0-1.5-0.1-2.2-0.1c-2.5,0-4.8,0.2-6.9,0.7v0.2c2.1-0.5,4.6-0.7,7.2-0.7c0.6,0,1.4,0,2,0.1c0.1,0.3,0.3,0.6,0.4,0.9
		c-0.8,0-1.8,0-2.7,0.1c-2.5,0.1-4.8,0.5-6.8,1v0.2c2.1-0.6,4.5-1,7.1-1.1c0.8,0,1.7-0.1,2.4-0.1c1.7,2.8,4.3,3.9,8.2,4.2
		c-0.9,0.5-1.6,1.4-1.7,2.5c-4.7,1.8-4.7-2.5-7.3-3.2c-0.2-0.1-0.3-0.1-0.5-0.1c-0.5-0.1-1,0-1.1,0.2l0,0v0.1c0,0.1,0,0.1,0.1,0.2
		c0.1,0.2,0.4,0.4,0.8,0.5c0.3,0.2,0.7,0.5,0.9,0.6c1.6,1.7,1.8,4.9,7.1,3.9v1.6v2.2c0,0.1,0,0.1,0,0.2c0,0.2-0.1,0.4-0.1,0.5
		c-0.1,0.2-0.2,0.4-0.4,0.6s-0.4,0.3-0.7,0.5c-0.2,0.1-0.4,0.3-0.3,0.5l0,0c0.1,0.2,0.3,0.2,0.8,0.2c1.4,0,2.4-0.6,2.7-1.5
		c0.1-0.1,0.1-0.3,0.1-0.5l0,0v-0.6v-0.4v-2.1v-2.1c0.1-0.8,0.5-1.4,0.6-1.3v1.3v3.6v2.2v0.3c0,0.2,0,0.2-0.1,0.5s0,0.4-0.2,0.6
		c-0.3,0.3,0,0.1-0.4,0.3c-0.2,0.1-0.2,0.3-0.2,0.5c0.1,0.2,0.2,0.3,0.7,0.3c1.1-0.2,2-0.6,2.3-1.5c0.1-0.1,0.1-0.3,0.1-0.5v-0.3
		v-0.3v-0.5v-1.6v-5.1c0-0.2,0.1-0.3,0.3-0.3c0.1,0,0.3,0.1,0.3,0.3v5.1v1.6v0.5v0.3v0.3c0,0.2,0,0.3,0.1,0.5
		c0.2,0.8,1.1,1.3,2.3,1.5c0.4,0.1,0.6-0.1,0.7-0.3c0-0.2,0-0.4-0.2-0.5c-0.4-0.2-0.1,0-0.4-0.3c-0.2-0.2-0.1-0.4-0.2-0.6
		c-0.1-0.3,0-0.3-0.1-0.5v-0.3v-2.2v-3.6v-1.3c0.1-0.1,0.5,0.4,0.6,1.3v2.2v1.7v0.4v0.6l0,0c0,0.2,0,0.3,0.1,0.5
		c0.2,0.8,1.4,1.5,2.7,1.5c0.4,0,0.7,0,0.8-0.2l0,0c0.1-0.2-0.1-0.4-0.3-0.5c-0.3-0.2-0.5-0.3-0.7-0.5c-0.2-0.2-0.3-0.4-0.4-0.6
		c0-0.1-0.1-0.3-0.1-0.5c0-0.1,0-0.1,0-0.2v-2.2v-3.5c0-1.1-0.7-2.4-1.8-2.9c3.9-0.2,6.8-1.3,8.2-4.2c0.8,0,1.7,0,2.6,0.1
		c2.6,0.1,5,0.5,7.1,1.1v-0.2c-2-0.5-4.3-0.9-6.8-1c-0.9-0.1-1.9-0.1-2.8-0.1c0.1-0.3,0.2-0.6,0.3-0.9
		C-357.9,1142.5-357.2,1142.5-356.5,1142.5L-356.5,1142.5z"/>
	<path id="svg_196" class="st0" d="M-371.6,1145"/>
	<g id="svg_197">
		<path id="svg_198" class="st11" d="M-361.1,1141.6c0-2.6-1.9-4.6-4.5-4.6l0,0c-2.8,0-3.2,0.2-5.1,0.2s-2.3-0.2-4.9-0.2
			c-0.1,0-0.2,0-0.4,0c-2.5,0-4.5,2-4.5,4.5c0,2,1.2,3.9,3.1,4.6l0,0c0,0.2,3.7,1.6,11.8,0.6c0.3,0,0.7-0.1,1.1-0.2l0,0l0,0
			C-362.5,1145.8-361.1,1143.6-361.1,1141.6z"/>
		<path id="svg_199" class="st12" d="M-375.9,1137.3c0.1,0,0.3,0,0.4,0c2.6,0,3,0.2,4.9,0.2s2.3-0.2,5.1-0.2l0,0
			c2.5,0,4.3,2,4.5,4.3c0-0.1,0-0.1,0-0.2c0-2.6-1.9-4.6-4.5-4.6l0,0c-2.8,0-3.2,0.2-5.1,0.2s-2.3-0.2-4.9-0.2c-0.1,0-0.2,0-0.4,0
			c-2.5,0-4.5,2-4.5,4.5c0,0.1,0,0.1,0,0.2C-380.2,1139.2-378.3,1137.3-375.9,1137.3z"/>
		<ellipse id="svg_200" class="st6" cx="-375.9" cy="1141.4" rx="2" ry="2.9"/>
		<ellipse id="svg_201" class="st13" cx="-375.7" cy="1141.4" rx="1.4" ry="1.8"/>
		<ellipse id="svg_202" class="st6" cx="-376.4" cy="1140.6" rx="0.4" ry="0.4"/>
		<ellipse id="svg_203" class="st6" cx="-365.3" cy="1141.4" rx="2" ry="2.9"/>
		<ellipse id="svg_204" class="st13" cx="-365.5" cy="1141.4" rx="1.4" ry="1.8"/>
		<circle id="svg_205" class="st6" cx="-365.8" cy="1140.7" r="0.3"/>
		<ellipse id="svg_206" class="st13" cx="-370.7" cy="1143.9" rx="0.5" ry="0.5"/>
		<path id="svg_207" class="st13" d="M-369.8,1145c-0.1,0-0.1,0.1-0.1,0.2c-0.1,0.3-0.4,0.5-0.8,0.5s-0.7-0.2-0.8-0.5
			c0-0.1-0.1-0.2-0.1-0.2s-0.1,0.1-0.1,0.2c0.1,0.4,0.5,0.8,1.1,0.8c0.5,0,1-0.3,1.1-0.8C-369.7,1145.1-369.7,1145-369.8,1145
			L-369.8,1145z"/>
	</g>
	<path id="svg_208" class="st7" d="M-383.9,1149.4c0,0.2-0.2,0.3-0.3,0.3s-0.3-0.2-0.3-0.3s0.3-1.4,0.3-1.4
		S-383.9,1149.2-383.9,1149.4z"/>
	<ellipse id="svg_209" class="st14" cx="-382.8" cy="1147.7" rx="0.2" ry="0.2"/>
	<ellipse id="svg_210" class="st14" cx="-382.1" cy="1148.2" rx="0.2" ry="0.2"/>
	
		<ellipse id="svg_211" transform="matrix(0.9207 -0.3904 0.3904 0.9207 -478.811 -57.7663)" class="st14" cx="-381.5" cy="1149" rx="0.2" ry="0.3"/>
	
		<ellipse id="svg_212" transform="matrix(0.7499 -0.6616 0.6616 0.7499 -855.9701 35.8016)" class="st14" cx="-380.6" cy="1149.9" rx="0.2" ry="0.3"/>
	
		<ellipse id="svg_213" transform="matrix(0.4946 -0.8691 0.8691 0.4946 -1191.9204 251.6273)" class="st14" cx="-379.6" cy="1150.7" rx="0.2" ry="0.3"/>
	
		<ellipse id="svg_214" transform="matrix(0.1306 -0.9914 0.9914 0.1306 -1470.4552 625.6848)" class="st14" cx="-378.5" cy="1151.3" rx="0.2" ry="0.3"/>
	
		<ellipse id="svg_215" transform="matrix(0.9977 -6.828860e-02 6.828860e-02 0.9977 -79.4957 -23.074)" class="st14" cx="-377.2" cy="1151.2" rx="0.3" ry="0.2"/>
	<path id="svg_216" class="st14" d="M-375.8,1150.9c0,0.1,0,0.2-0.2,0.3c-0.2,0.1-0.3-0.1-0.3-0.2c0-0.1,0.1-0.2,0.3-0.3
		C-375.8,1150.6-375.8,1150.8-375.8,1150.9z"/>
	<path id="svg_217" d="M-374.1,1147.8c-0.4,0.2-0.7,0.5-0.9,0.8c0.3-0.1,8.6-1.8,9.5,2c-0.1-1.1-0.7-2.2-1.8-2.8
		C-370.6,1148.1-374.1,1147.8-374.1,1147.8z"/>
	<path id="svg_218" d="M-375.7,1150.4c0,1.2,0,2.3,0,2.3s-0.1,0-0.2,0C-375.9,1152.6-376.1,1151.6-375.7,1150.4z"/>
	<path id="svg_219" class="st7" d="M-370.5,1159.2"/>
	<path id="svg_220" class="st7" d="M-370.5,1150.9"/>
	<line id="svg_221" class="st0" x1="-367.7" y1="1160.2" x2="-368.9" y2="1159.8"/>
	<line id="svg_222" class="st0" x1="-367.6" y1="1163.3" x2="-366.1" y2="1163.3"/>
	<line id="svg_223" class="st0" x1="-367.2" y1="1163.2" x2="-367.6" y2="1163.3"/>
	<line id="svg_224" class="st0" x1="-366.8" y1="1163.2" x2="-367.1" y2="1163.2"/>
	<line id="svg_225" class="st0" x1="-367.2" y1="1163.2" x2="-367.5" y2="1163.3"/>
	<line id="svg_226" class="st0" x1="-367.1" y1="1163.2" x2="-367.2" y2="1163.2"/>
	<line id="svg_227" class="st0" x1="-365.6" y1="1163" x2="-366" y2="1163.1"/>
	<line id="svg_228" class="st0" x1="-366.4" y1="1163.1" x2="-366" y2="1163.1"/>
	<line id="svg_229" class="st0" x1="-366.8" y1="1163.2" x2="-366.4" y2="1163.1"/>
	<line id="svg_230" class="st0" x1="-367.1" y1="1163.2" x2="-366.8" y2="1163.2"/>
	<line id="svg_231" class="st0" x1="-366.8" y1="1163.2" x2="-366.8" y2="1163.2"/>
	<line id="svg_232" class="st0" x1="-367.6" y1="1163.3" x2="-367.7" y2="1163.3"/>
	<line id="svg_233" class="st0" x1="-365.6" y1="1163" x2="-365.6" y2="1163"/>
</g>
<text id="headerSVG.issueTracker1" transform="matrix(0.9407 0 0 1 -504.8862 1192.459)" class="st15 st16">ISSUE TRACKER</text>
<text id="headerSVG.gitHub1" transform="matrix(0.9407 0 0 1 -482.9009 1206.0088)" class="st15 st16">GitHub</text>
<text id="headerSVG.think" transform="matrix(1.0146 0 0 1 -507.3301 1085.1934)" class="st15 st16">THINK</text>
<text id="headerSVG.code" transform="matrix(1.0146 0 0 1 -413.8828 1085.1934)" class="st15 st16">CODE</text>
<text id="headerSVG.learn" transform="matrix(1.0146 0 0 1 -319.353 1085.1934)" class="st15 st16">LEARN</text>
<text id="headerSVG.culture" transform="matrix(1.0146 0 0 1 -236.3208 1085.1934)" class="st15 st16">CULTURE</text>
<text id="headerSVG.repository" transform="matrix(0.9407 0 0 1 -402.1787 1192.459)" class="st15 st16">REPOSITORY</text>
<text id="headerSVG.gitHub2" transform="matrix(0.9407 0 0 1 -386.2456 1206.0088)" class="st15 st16">GitHub</text>
<text id="headerSVG.slack" transform="matrix(0.9407 0 0 1 -200.4551 1192.459)" class="st15 st16">SLACK</text>
<text id="headerSVG.jira" transform="matrix(0.9407 0 0 1 -477.3164 1325.9)" class="st15 st16">JIRA</text>
<text id="headerSVG.devops" transform="matrix(1.0146 0 0 1 -301.3687 1192.459)" class="st15 st16">DEVOPS</text>
<text id="headerSVG.insights" transform="matrix(1.0146 0 0 1 -304.4927 1206.0088)" class="st15 st16">INSIGHTS</text>
<g>
	<g>
		<path class="st17" d="M-462.6,1264.8h-2c-0.2,0-0.3,0.1-0.3,0.3v11.6c0,0.2,0.1,0.3,0.3,0.3h2c0.2,0,0.3-0.1,0.3-0.3v-11.6
			C-462.3,1264.9-462.4,1264.8-462.6,1264.8z"/>
		<path class="st17" d="M-450.2,1276.5l-2.7-3.8c1.1-0.5,1.8-1.4,1.8-3v-1.5c0-2.4-1.2-3.4-4-3.4h-4.8c-0.2,0-0.3,0.1-0.3,0.3v11.6
			c0,0.2,0.1,0.3,0.3,0.3h2c0.2,0,0.3-0.1,0.3-0.3v-3.6h2l2.7,3.8c0.1,0.1,0.2,0.1,0.2,0.1h2.3l0,0c0.2,0,0.3-0.1,0.3-0.3
			C-450.1,1276.6-450.1,1276.5-450.2,1276.5z M-457.6,1267.1h2.5c1.2,0,1.6,0.5,1.6,1.2v1.2c0,1-0.4,1.3-1.6,1.3h-2.5V1267.1z"/>
	</g>
	<path class="st17" d="M-443.8,1265c0-0.1-0.2-0.2-0.3-0.2h-2.9c-0.1,0-0.2,0.1-0.3,0.2l-3.7,11.6c0,0.1,0,0.2,0,0.3
		c0.1,0.1,0.1,0.1,0.2,0.1h2c0.1,0,0.2-0.1,0.3-0.2l2.5-8.5c0,0,0.1-0.2,0.3-0.2c0.2,0,0.3,0.2,0.3,0.2l1.1,4h-1.7
		c-0.1,0-0.2,0.1-0.3,0.2l-0.4,1.6c0,0.1,0,0.2,0,0.3c0.1,0.1,0.1,0.1,0.2,0.1h3.1l0.7,2.3c0,0.1,0.2,0.2,0.3,0.2h2
		c0.1,0,0.2,0,0.2-0.1c0.1-0.1,0.1-0.2,0-0.3L-443.8,1265z"/>
	<path class="st17" d="M-467.1,1264.8h-2c-0.2,0-0.3,0.1-0.3,0.3v9c0,1.1-0.8,1.5-1.5,1.5c-0.1,0-0.2,0-0.2,0.1s-0.1,0.2,0,0.2
		l0.5,1.5c0,0.1,0.2,0.2,0.4,0.2c1.9,0,3.4-1.4,3.4-3.4v-9.3c0-0.1,0-0.2-0.1-0.2C-467,1264.8-467,1264.8-467.1,1264.8z"/>
	<g>
		<g>
			<g>
				<g>
					<path class="st17" d="M-482.3,1261.6c-0.6,0-1,0.5-1,1s0.5,1,1,1c0.6,0,1-0.5,1-1C-481.1,1262.2-481.7,1261.6-482.3,1261.6
						L-482.3,1261.6L-482.3,1261.6z"/>
				</g>
			</g>
			<g>
				<g>
					<path class="st17" d="M-475.1,1261.6c-0.6,0-1,0.5-1,1s0.5,1,1,1s1-0.5,1-1S-474.5,1261.6-475.1,1261.6L-475.1,1261.6
						L-475.1,1261.6z"/>
				</g>
			</g>
		</g>
		<g>
			<g>
				<path class="st17" d="M-478.6,1260.6c-0.6,0-1,0.5-1,1s0.5,1,1,1c0.6,0,1-0.5,1-1S-478.1,1260.6-478.6,1260.6L-478.6,1260.6
					L-478.6,1260.6z"/>
			</g>
		</g>
	</g>
	<g>
		<path class="st17" d="M-472.5,1264.6c-0.1,0-0.1-0.1-0.2-0.1h-0.1c-0.7,0.3-1.5,0.5-2.2,0.6c-0.1,0-0.2,0.1-0.3,0.2
			c-0.5,1.3-1.8,2.7-3.1,4c0,0-0.1,0.1-0.2,0.1s-0.2-0.1-0.2-0.1c-1.4-1.3-2.6-2.6-3.1-4c0-0.1-0.2-0.2-0.3-0.2
			c-0.7-0.2-1.5-0.4-2.2-0.6h-0.1c-0.1,0-0.1,0-0.2,0.1c-0.1,0.1-0.1,0.2-0.1,0.3c0.1,1.1,0.5,2.3,1.4,3.4c0.7,1,1.8,2.1,2.7,3.1
			c1.8,1.7,3.4,3.5,3.5,5.4c0,0.2,0.2,0.3,0.3,0.3h2.1c0.1,0,0.2,0,0.2-0.1c0.1-0.1,0.1-0.2,0.1-0.2c-0.1-1.3-0.5-2.6-1.6-4
			c-0.2-0.3-0.4-0.6-0.6-0.8c-0.1-0.1,0-0.2,0-0.3c0.1-0.1,0.1-0.1,0.2-0.2c0.9-0.9,2-2,2.7-3.1c0.8-1.1,1.2-2.3,1.4-3.4
			C-472.4,1264.8-472.4,1264.7-472.5,1264.6z"/>
		<g>
			<path class="st17" d="M-480.9,1272.8c0,0-0.1-0.1-0.2-0.1s-0.2,0.1-0.3,0.2c-0.8,1.3-1.4,2.6-1.4,3.8c0,0.1,0,0.2,0.1,0.2
				c0.1,0.1,0.1,0.1,0.2,0.1h2.1c0.2,0,0.3-0.1,0.3-0.3c0-0.6,0.2-1.2,0.6-1.8c0.1-0.2,0-0.4,0-0.5
				C-479.9,1274-480.3,1273.5-480.9,1272.8z"/>
		</g>
		<path class="st17" d="M-478.6,1265.7c0.6,0,1,0,1.1,0c0.2,0,0.3,0.1,0.3,0.3v0.1c-0.1,0.2-0.5,1-1.2,1.7c-0.1,0.1-0.2,0.1-0.2,0.1
			l0,0c-0.1,0-0.2,0-0.2-0.1c-0.7-0.7-1.1-1.5-1.2-1.7v-0.1c0-0.2,0.1-0.3,0.3-0.3C-479.7,1265.5-479.4,1265.7-478.6,1265.7
			L-478.6,1265.7z"/>
	</g>
</g>
<rect id="svg_121_1_" x="-319.2" y="1065.9" class="st18" width="74.7" height="4.6"/>
<rect id="svg_121_2_" x="-236.2" y="1065.9" class="st18" width="95.1" height="4.6"/>
<g id="XMLID_4_">
	<g id="XMLID_6_">
		<path id="XMLID_21_" class="st19" d="M-178.6,1134.8c-0.4-1.3-1.9-2.1-3.3-1.5c-1.5,0.4-2.1,1.8-1.6,3.2l6.8,20
			c0.4,1.2,1.9,2,3.2,1.5c1.4-0.3,2.2-1.8,1.8-3.2C-171.9,1154.8-178.6,1134.8-178.6,1134.8z"/>
		<path id="XMLID_20_" class="st20" d="M-189.1,1138.1c-0.4-1.3-1.9-2.1-3.3-1.5c-1.4,0.4-2.1,1.8-1.6,3.2l6.8,20
			c0.4,1.2,1.9,2,3.2,1.5c1.4-0.3,2.2-1.8,1.8-3.2L-189.1,1138.1z"/>
		<path id="XMLID_19_" class="st21" d="M-170.2,1151.4c1.4-0.4,2.1-1.8,1.6-3.2c-0.4-1.3-1.9-2.1-3.3-1.5l-20.7,6.6
			c-1.2,0.4-2,1.8-1.6,3.1c0.3,1.3,1.9,2.2,3.3,1.6C-191,1157.8-170.2,1151.4-170.2,1151.4z"/>
		<path id="XMLID_18_" class="st22" d="M-188.2,1157.1c1.4-0.4,3.2-0.9,4.9-1.5c-0.4-1.3-0.9-3.1-1.6-4.7l-4.9,1.5L-188.2,1157.1z"
			/>
		<path id="XMLID_12_" class="st23" d="M-177.7,1153.8c1.9-0.6,3.6-1.1,4.9-1.5c-0.4-1.3-0.9-3.1-1.6-4.7l-4.9,1.5L-177.7,1153.8z"
			/>
		<path id="XMLID_11_" class="st24" d="M-173.6,1141.2c1.4-0.4,2.1-1.8,1.6-3.2c-0.4-1.3-1.9-2.1-3.3-1.5l-20.7,6.5
			c-1.2,0.4-2,1.8-1.6,3.1c0.3,1.3,1.9,2.2,3.3,1.6C-194.3,1147.8-173.6,1141.2-173.6,1141.2z"/>
		<path id="XMLID_10_" class="st25" d="M-191.6,1146.9c1.4-0.4,3.2-0.9,4.9-1.5c-0.6-1.8-1.1-3.5-1.6-4.7l-4.9,1.5L-191.6,1146.9z"
			/>
		<path id="XMLID_7_" class="st26" d="M-181.2,1143.6c1.9-0.5,3.6-1.1,4.9-1.5c-0.6-1.8-1.1-3.5-1.6-4.7l-4.9,1.5L-181.2,1143.6z"/>
	</g>
</g>
<ellipse id="svg_83" class="st1" cx="-279.1" cy="1145.3" rx="27.6" ry="27.2"/>
<path id="svg_100" class="st27" d="M-276,1156.5l-7.1,0.5c-0.6,0-1.1-0.4-1.2-1l0,0c0-0.6,0.4-1.1,1-1.2l7.1-0.5
	c0.6,0,1.1,0.4,1.2,1l0,0C-274.8,1156-275.3,1156.5-276,1156.5z"/>
<path id="svg_101" class="st27" d="M-276,1159.9l-7.1,0.5c-0.6,0-1.1-0.4-1.2-1l0,0c0-0.6,0.4-1.1,1-1.2l7.1-0.4
	c0.6,0,1.1,0.4,1.2,1l0,0C-274.8,1159.4-275.3,1159.9-276,1159.9L-276,1159.9z"/>
<g id="svg_102">
	<path id="svg_103" class="st28" d="M-283.1,1161.6L-283.1,1161.6c0.1,2,1.8,3.5,3.6,3.5c2.1,0,3.7-1.7,3.7-3.9c0,0,0,0,0-0.1
		L-283.1,1161.6L-283.1,1161.6z"/>
</g>
<g id="svg_104">
	<path id="svg_105" class="st29" d="M-268.4,1138.1c0-6.1-5-11.1-11.2-11.1c-6.2,0-11.2,4.9-11.2,11.1c0,2.9,1,5.4,2.8,7.3
		c1.8,2.2,2.6,2.9,2.6,6.5v0.3c0,0.5,0.4,0.9,0.9,0.9h9.6c0.5,0,0.9-0.4,0.9-0.9v-0.2c0-3.8,0.9-4.4,2.9-6.9l0,0
		C-269.3,1143.2-268.4,1140.7-268.4,1138.1L-268.4,1138.1z"/>
	<path id="svg_106" class="st29" d="M-270.9,1145.1l0.1-0.2C-270.7,1144.9-270.9,1145-270.9,1145.1L-270.9,1145.1z"/>
</g>
<path id="svg_107" class="st30" d="M-268.4,1138.1c0-6.1-5-11.1-11.2-11.1v26h4.8c0.5,0,0.9-0.4,0.9-0.9v-0.2c0-3.8,0.9-4.4,2.9-6.9
	l0,0C-269.3,1143.2-268.4,1140.7-268.4,1138.1z"/>
<path id="svg_108" class="st31" d="M-274.8,1158.9v-0.4c0-0.5-0.5-0.9-1-0.9l-3.6,0.3v2.4l3.9-0.3
	C-275.2,1159.9-274.8,1159.4-274.8,1158.9L-274.8,1158.9z"/>
<path id="svg_109" class="st31" d="M-274.8,1155.5v-0.3c0-0.5-0.5-0.9-1-0.9l-3.6,0.3v2.3l3.9-0.3
	C-275.2,1156.5-274.8,1156-274.8,1155.5z"/>
<path id="svg_110" class="st32" d="M-275.7,1161.1l-3.7,0.3v3.7C-277.4,1165.1-275.7,1163.3-275.7,1161.1
	C-275.7,1161.2-275.7,1161.2-275.7,1161.1L-275.7,1161.1z"/>
<ellipse id="svg_111" class="st33" cx="-279.5" cy="1138.3" rx="7" ry="6.9"/>
<path id="svg_112" class="st34" d="M-279.5,1131.4v13.8c3.9,0,7-3.1,7-6.9C-272.6,1134.5-275.6,1131.4-279.5,1131.4z"/>
<path id="svg_113" class="st35" d="M-274.2,1142.7c1.4-1.6,1.9-3.7,1.6-5.6l-6.9,1.2l-4.5,5.2
	C-281.1,1146-276.7,1145.6-274.2,1142.7z"/>
<text id="headerSVG.issueTracker2" transform="matrix(0.9407 0 0 1 -503.8447 1313.6895)" class="st15 st16">ISSUE TRACKER</text>
<g id="svg_10_1_">
	<g id="svg_11_1_">
		<path id="svg_12_3_" class="st4" d="M-372,1238.2"/>
		<polyline id="svg_12_2_" class="st4" points="-462.3,1235.9 -462.3,1224.8 -372,1224.8 		"/>
		<g id="svg_13_1_">
			<polygon id="svg_14_1_" class="st5" points="-457.1,1234.5 -462.3,1243.3 -467.5,1234.5 			"/>
		</g>
	</g>
</g>
<line id="svg_171_1_" class="st4" x1="-372" y1="1225.8" x2="-372" y2="1213"/>
</svg>
